<?xml version="1.0" encoding="UTF-8" standalone="no"?>
<!DOCTYPE svg PUBLIC "-//W3C//DTD SVG 1.1//EN"
"http://www.w3.org/Graphics/SVG/1.1/DTD/svg11.dtd">
<svg viewBox="0 0 935 1210" version="1.1" xmlns="http://www.w3.org/2000/svg" xmlns:xlink="http://www.w3.org/1999/xlink">
<defs>
<clipPath id="c0_1"><path d="M170.4,67.2l0,-23.6l220,0l0,23.6Z" /></clipPath>
<style type="text/css"><![CDATA[
.g1_1{
fill: #C5C6C7;
}
.g2_1{
fill: #E7E8E8;
}
.g3_1{
fill: none;
stroke: #FFFFFF;
stroke-width: 1.5277778;
stroke-linecap: butt;
stroke-linejoin: miter;
}
.g4_1{
fill: #FFFFFF;
}
.g5_1{
fill: #DEDFDF;
}
.g6_1{
}
.g7_1{
fill: none;
stroke: #000000;
stroke-width: 2.1006944;
stroke-linecap: butt;
stroke-linejoin: miter;
}
.g8_1{
fill: none;
stroke: #000000;
stroke-width: 1.1458334;
stroke-linecap: butt;
stroke-linejoin: miter;
}
.g9_1{
fill: #C3C4C6;
}
.g10_1{
fill: none;
stroke: #000000;
stroke-width: 1.9097222;
stroke-linecap: butt;
stroke-linejoin: miter;
}
.g11_1{
fill: none;
stroke: #000000;
stroke-width: 0.7638889;
stroke-linecap: butt;
stroke-linejoin: miter;
}
.g12_1{
fill: none;
stroke: #B5B6B6;
stroke-width: 0.38194445;
stroke-linecap: butt;
stroke-linejoin: miter;
stroke-miterlimit: 4;
}
]]></style>
</defs>
<path d="M605,204.4l-7.3,-7.3l-260.4,0l-7.3,7.3l0,358.1l7.3,7.3l260.4,0l7.3,-7.3Z" class="g1_1" />
<path d="M316.3,204.4L309,197.1l-260.5,0l-7.2,7.3l0,758.7l7.2,7.2l260.5,0l7.3,-7.2Z" class="g2_1" />
<path d="M50.9,964.7l-4,-4l0,-754l4,-3.9l255.7,0l4,3.9l0,754l-4,4l-255.7,0Z" class="g3_1" />
<path d="M894,204.4l-7.3,-7.3l-260.4,0l-7.3,7.3l0,358.1l7.3,7.3l260.4,0l7.3,-7.3Z" class="g1_1" />
<path d="M339.6,564.1l-3.9,-3.9l0,-353.5l3.9,-3.9l255.8,0l3.9,3.9l0,353.5l-3.9,3.9l-255.8,0Z" class="g3_1" />
<path d="M628.6,564.1l-4,-3.9l0,-353.5l4,-3.9l255.7,0l4,3.9l0,353.5l-4,3.9l-255.7,0Z" class="g3_1" />
<path d="M579.1,292.5c-0.1,0,-7.3,2.9,-23.1,4.7l-3.9,-1.9l-0.1,0c-0.5,0,-51.4,1.3,-80.7,1.3l-2.7,0c-0.2,-0.5,-0.6,-0.8,-1.1,-0.8c-0.5,0,-0.9,0.3,-1.1,0.8l-2.7,0c-29.3,0,-80.2,-1.3,-80.7,-1.3l-0.1,0l-3.9,1.9c-15.8,-1.8,-23,-4.7,-23.1,-4.7l-1,-0.4l0,14.2l1.5,0l0,-6.7c1.5,-1,6.5,-3.2,14.6,2.2l0.1,0.1l6.6,-3.3c7.4,0.8,16.7,1.5,28.1,1.5l123.4,0c11.4,0,20.7,-0.7,28.1,-1.5l6.6,3.3l0.1,-0.1c8.1,-5.4,13.1,-3.2,14.6,-2.2l0,6.7l1.5,0l0,-14.2Zm-207.9,8.6c-7.9,-5.1,-12.9,-3.4,-14.8,-2.3l0,-4.6c2.3,0.8,8.8,2.8,20.2,4.2Zm158,-2.5l-123.4,0c-10.2,0,-18.7,-0.5,-25.6,-1.3l2.9,-1.4c2.3,0.1,51.9,1.3,80.6,1.3l2.7,0c0.2,0.5,0.6,0.9,1.1,0.9c0.5,0,0.9,-0.4,1.1,-0.9l2.7,0c28.7,0,78.3,-1.2,80.6,-1.3l2.9,1.4c-6.9,0.8,-15.4,1.3,-25.6,1.3m34.6,2.5l-5.4,-2.7c11.4,-1.4,17.9,-3.4,20.2,-4.2l0,4.6c-1.9,-1.1,-6.9,-2.8,-14.8,2.3Z" class="g4_1" />
<path d="M579.1,403.1c-0.1,-0.1,-7.3,-3,-23.1,-4.8l-3.9,2l-0.1,0c-0.5,0,-51.4,-1.3,-80.7,-1.3l-2.7,0c-0.2,0.4,-0.6,0.8,-1.1,0.8c-0.5,0,-0.9,-0.4,-1.1,-0.8l-2.7,0c-29.3,0,-80.2,1.3,-80.7,1.3l-0.1,0l-3.9,-2c-15.8,1.8,-23,4.7,-23.1,4.8l-1,0.4l0,-14.3l1.5,0l0,6.8c1.5,0.9,6.5,3.1,14.6,-2.2l0.1,-0.1l6.6,3.3c7.4,-0.9,16.7,-1.5,28.1,-1.5l123.4,0c11.4,0,20.7,0.6,28.1,1.5l6.6,-3.3l0.1,0.1c8.1,5.3,13.1,3.1,14.6,2.1l0,-6.7l1.5,0l0,14.3ZM371.2,394.4c-7.9,5.1,-12.9,3.5,-14.8,2.3l0,4.6c2.3,-0.8,8.8,-2.7,20.2,-4.2Zm158,2.6l-123.4,0c-10.2,0,-18.7,0.5,-25.6,1.2l2.9,1.5c2.3,-0.1,51.9,-1.4,80.6,-1.4l2.7,0c0.2,-0.5,0.6,-0.8,1.1,-0.8c0.5,0,0.9,0.3,1.1,0.8l2.7,0c28.7,0,78.3,1.3,80.6,1.4l2.9,-1.5C547.9,397.5,539.4,397,529.2,397m34.6,-2.6l-5.4,2.7c11.4,1.5,17.9,3.4,20.2,4.2l0,-4.6c-1.9,1.2,-6.9,2.8,-14.8,-2.3Z" class="g4_1" />
<path d="M441.3,619.7l0,-20.6l-97.2,0l-3.6,3.6l0,20.6l97.2,0Z" class="g2_1" />
<path d="M495.8,619.7l0,-20.6l-44,0l-3.6,3.6l0,20.6l44,0Z" class="g2_1" />
<path d="M594.5,619.7l0,-20.6l-88.3,0l-3.6,3.6l0,20.6l88.3,0Z" class="g2_1" />
<path d="M441.3,650.9l0,-20.6l-97.2,0l-3.6,3.6l0,20.6l97.2,0Z" class="g2_1" />
<path d="M495.8,650.9l0,-20.6l-44,0l-3.6,3.6l0,20.6l44,0Z" class="g2_1" />
<path d="M594.5,650.9l0,-20.6l-88.3,0l-3.6,3.6l0,20.6l88.3,0Z" class="g2_1" />
<path d="M441.3,682.4l0,-20.6l-97.2,0l-3.6,3.6l0,20.6l97.2,0Z" class="g2_1" />
<path d="M495.8,682.4l0,-20.6l-44,0l-3.6,3.6l0,20.6l44,0Z" class="g2_1" />
<path d="M594.5,682.4l0,-20.6l-88.3,0l-3.6,3.6l0,20.6l88.3,0Z" class="g2_1" />
<path d="M880.9,322.2l0,60.4l-6.4,6.5l-237,0l-6.4,-6.5l0,-60.4l6.4,-6.4l237,0Z" class="g4_1" />
<path d="M880.9,405.9l0,60.5l-6.4,6.4l-237,0l-6.4,-6.4l0,-60.5l6.4,-6.4l237,0Z" class="g4_1" />
<path d="M880.9,489.7l0,60.4l-6.4,6.4l-237,0l-6.4,-6.4l0,-60.4l6.4,-6.5l237,0Z" class="g4_1" />
<path d="M880.9,216l0,82.1l-6.4,6.4l-237,0l-6.4,-6.4l0,-82.1l6.4,-6.5l237,0Z" class="g4_1" />
<path d="M592,308.5l0,78.9l-6.5,6.4l-236.9,0l-6.5,-6.4l0,-78.9l6.5,-6.4l236.9,0Z" class="g4_1" />
<path d="M592,413.7l0,54.6l-6.5,6.4l-236.9,0l-6.5,-6.4l0,-54.6l6.5,-6.5l236.9,0Z" class="g4_1" />
<path d="M503,221.7l0,59.7l-6.4,6.4l-64.6,0l-6.5,-6.4l0,-59.7l6.5,-6.5l64.6,0Z" class="g4_1" />
<path d="M592.2,221.7l0,59.7l-6.4,6.4l-64.6,0l-6.4,-6.4l0,-59.7l6.4,-6.5l64.6,0Z" class="g4_1" />
<path d="M403.7,218.6l-25.5,-7.8l-25.5,7.8c0,0,-1.1,13.2,-10.1,15.1l0,18.1c0,0,8.5,33.5,35.6,40.7c27.1,-7.2,35.5,-40.7,35.5,-40.7l0,-18.1c-9,-1.9,-10,-15.1,-10,-15.1Z" class="g4_1" />
<path d="M590.9,489l0,59.7l-6.4,6.4l-105.3,0l-6.4,-6.4l0,-59.7l6.4,-6.4l105.3,0Z" class="g4_1" />
<path d="M460.9,489l0,59.7l-6.4,6.4l-105.2,0l-6.5,-6.4l0,-59.7l6.5,-6.4l105.2,0Z" class="g4_1" />
<path d="M287.9,953.9l9.9,-7.1l0,-17.5l-9.9,-7l-216.8,0l-9.9,12.2l0,7.1l9.9,12.3Z" class="g4_1" />
<path d="M287.9,286.3l9.9,-7.1l0,-17.5l-9.9,-7l-217,0l-9.7,12.2l0,7.1l9.7,12.3Z" class="g4_1" />
<path d="M296.6,235.9l0,-16.6l-6.4,-6.4l-166.8,0l-3,-3.8l-47.4,0L61.2,224l0,7.2L73,246.1l47.4,0l3,-3.8l166.8,0Z" class="g4_1" />
<path d="M133.8,621.9l-6.4,0l-7.3,-7.8l-47.1,0l-7.3,7.8l-6.5,0l-7,7l0,65.2l7,7l74.6,0l7.1,-7l0,-65.2Z" class="g4_1" />
<path d="M118.1,618.7l3.1,3.3l-14.9,17.2l-19.5,0L71.8,622l3.1,-3.3Zm2,-4.6l-47.1,0l-7.3,7.8l19,21.9l23.7,0l19,-21.9Z" class="g5_1" />
<path d="M133.8,726l-6.4,0l-7.3,-7.7l-47.1,0L65.7,726l-6.5,0l-7,7.1l0,65.2l7,7l74.6,0l7.1,-7l0,-65.2Z" class="g4_1" />
<path d="M118.1,722.9l3.1,3.3l-14.9,17.2l-19.5,0l-15,-17.2l3.1,-3.3Zm2,-4.6l-47.1,0L65.7,726l19,22l23.7,0l19,-22Z" class="g5_1" />
<path d="M133.8,830.2l-6.4,0l-7.3,-7.8l-47.1,0l-7.3,7.8l-6.5,0l-7,7l0,65.2l7,7.1l74.6,0l7.1,-7.1l0,-65.2Z" class="g4_1" />
<path d="M118.1,827l3.1,3.4l-14.9,17.2l-19.5,0l-15,-17.2L74.9,827Zm2,-4.5l-47.1,0l-7.3,7.7l19,22l23.7,0l19,-22Z" class="g5_1" />
<path d="M133.8,309.4l-6.4,0l-7.3,-7.8l-47.1,0l-7.3,7.8l-6.5,0l-7,7l0,65.2l7,7l74.6,0l7.1,-7l0,-65.2Z" class="g4_1" />
<path d="M118.1,306.2l3.1,3.3l-14.9,17.2l-19.5,0l-15,-17.2l3.1,-3.3Zm2,-4.6l-47.1,0l-7.3,7.8l19,21.9l23.7,0l19,-21.9Z" class="g5_1" />
<path d="M133.8,413.5l-6.4,0l-7.3,-7.7l-47.1,0l-7.3,7.7l-6.5,0l-7,7.1l0,65.2l7,7l74.6,0l7.1,-7l0,-65.2Z" class="g4_1" />
<path d="M118.1,410.4l3.1,3.3l-14.9,17.2l-19.5,0l-15,-17.2l3.1,-3.3Zm2,-4.6l-47.1,0l-7.3,7.7l19,22l23.7,0l19,-22Z" class="g5_1" />
<path d="M133.8,517.7l-6.4,0l-7.3,-7.8l-47.1,0l-7.3,7.8l-6.5,0l-7,7l0,65.2l7,7.1l74.6,0l7.1,-7.1l0,-65.2Z" class="g4_1" />
<path d="M118.1,514.5l3.1,3.3l-14.9,17.3l-19.5,0l-15,-17.3l3.1,-3.3Zm2,-4.6l-47.1,0l-7.3,7.8l19,21.9l23.7,0l19,-21.9Z" class="g5_1" />
<path d="M585.8,300.6l-236.6,0l-7.7,7.7l0,79l7.7,7.7l236.6,0l7.7,-7.7l0,-79Zm5.6,8.5l0,5.9c-0.6,-1.8,-1.5,-3.8,-2.8,-5.7l0,-0.1c-1.8,-2.6,-4.3,-5,-7.8,-6.5l4.2,0Zm-13.5,83.8l-220.8,0c-4,-1,-7.2,-3.2,-9.6,-6.6l0,-77c2.1,-3,5.1,-5.5,9.6,-6.6l220.8,0c4,1,7.2,3.2,9.6,6.5l0,77.1c-2.1,2.9,-5.1,5.5,-9.6,6.6M343.6,318.5c0.5,-2.2,1.3,-4.8,2.8,-7.4l0,73.4c-0.3,-0.4,-0.6,-0.9,-0.8,-1.4c-1,-2.1,-1.6,-4.2,-2,-6Zm245,-7.5c0.3,0.5,0.6,0.9,0.8,1.4c1,2.1,1.6,4.3,2,6l0,58.6c-0.5,2.2,-1.3,4.9,-2.8,7.5ZM350,302.7l4.2,0c-3.5,1.5,-6,3.9,-7.8,6.5l0,0.1c-1.3,1.9,-2.2,3.9,-2.8,5.7l0,-5.9Zm-6.4,83.7l0,-5.9c0.6,1.9,1.5,3.9,2.8,5.8l0,0.1c1.8,2.6,4.3,5,7.8,6.5l-4.2,0ZM585,392.9l-4.2,0c3.5,-1.5,6,-3.9,7.8,-6.5l0,-0.1c1.3,-1.9,2.2,-3.9,2.8,-5.8l0,5.9Z" class="g6_1" />
<path d="M585.8,405.8l-236.6,0l-7.7,7.6l0,54.8l7.7,7.7l236.6,0l7.7,-7.7l0,-54.8Zm5.6,8.5l0,5.9c-0.6,-1.9,-1.5,-3.9,-2.8,-5.7l0,-0.1c-1.8,-2.7,-4.3,-5.1,-7.8,-6.5l4.2,0Zm-13.5,59.5l-220.8,0c-4,-1,-7.2,-3.2,-9.6,-6.6l0,-52.8c2.1,-2.9,5.1,-5.4,9.6,-6.5l220.8,0c4,0.9,7.2,3.1,9.6,6.5l0,52.8c-2.1,2.9,-5.1,5.4,-9.6,6.6M343.6,423.7c0.5,-2.2,1.3,-4.9,2.8,-7.5l0,49.2c-0.3,-0.5,-0.6,-0.9,-0.8,-1.4c-1,-2.1,-1.6,-4.2,-2,-6Zm245,-7.5c0.3,0.5,0.6,0.9,0.8,1.4c1,2.1,1.6,4.2,2,6l0,34.3c-0.5,2.2,-1.3,4.9,-2.8,7.5ZM350,407.9l4.2,0c-3.5,1.4,-6,3.8,-7.8,6.5l0,0.1c-1.3,1.8,-2.2,3.8,-2.8,5.7l0,-5.9Zm-6.4,59.4l0,-5.9c0.6,1.9,1.5,3.9,2.8,5.7l0,0.1c1.8,2.7,4.3,5.1,7.8,6.6l-4.2,0ZM585,473.8l-4.2,0c3.5,-1.5,6,-3.9,7.8,-6.6l0,-0.1c1.3,-1.8,2.2,-3.8,2.8,-5.7l0,5.9Z" class="g6_1" />
<path d="M496.3,214l-64.5,0l-7.7,7.7l0,59.9l7.7,7.7l64.5,0l7.6,-7.7l0,-59.9Zm5.5,8.5l0,6c-0.6,-1.9,-1.5,-3.9,-2.7,-5.8l0,-0.1l-0.1,0c-1.7,-2.6,-4.2,-5,-7.7,-6.5l4.1,0Zm-13.5,64.7l-48.6,0c-4,-1,-7.2,-3.2,-9.6,-6.5l0,-58c2.1,-2.9,5.2,-5.5,9.7,-6.6l48.6,0c4,1,7.2,3.2,9.6,6.6l0,57.9c-2.1,3,-5.2,5.5,-9.7,6.6M426.2,231.9c0.5,-2.1,1.3,-4.8,2.8,-7.4l0,54.4c-0.3,-0.5,-0.5,-0.9,-0.8,-1.4c-1,-2.1,-1.6,-4.3,-2,-6Zm72.9,-7.4c0.3,0.4,0.5,0.9,0.8,1.3c1,2.2,1.6,4.3,1.9,6.1l0,39.5c-0.4,2.2,-1.2,4.8,-2.7,7.4Zm-66.4,-8.4l4.1,0c-3.5,1.5,-6,3.9,-7.7,6.5l-0.1,0l0,0.1c-1.3,1.9,-2.1,3.9,-2.8,5.8l0,-6Zm-6.5,64.7l0,-5.9c0.7,1.8,1.5,3.8,2.8,5.7l0,0.1l0.1,0c1.7,2.6,4.2,5,7.7,6.5l-4.1,0Zm69.2,6.4l-4.1,0c3.5,-1.5,6,-3.9,7.7,-6.5l0.1,0l0,-0.1c1.2,-1.9,2.1,-3.9,2.7,-5.7l0,5.9Z" class="g6_1" />
<path d="M585.8,214l-64.5,0l-7.6,7.7l0,59.9l7.6,7.7l64.5,0l7.7,-7.7l0,-59.9Zm5.6,8.5l0,6c-0.6,-1.9,-1.5,-3.9,-2.8,-5.8l0,-0.1c-1.8,-2.6,-4.3,-5,-7.8,-6.5l4.2,0Zm-13.5,64.7l-48.6,0c-4,-1,-7.2,-3.2,-9.6,-6.5l0,-58c2.1,-2.9,5.1,-5.5,9.6,-6.6l48.6,0c4,1,7.2,3.2,9.6,6.6l0,57.9c-2.1,3,-5.1,5.5,-9.6,6.6M515.8,231.9c0.4,-2.1,1.3,-4.8,2.7,-7.4l0,54.4c-0.2,-0.5,-0.5,-0.9,-0.7,-1.4c-1,-2.1,-1.6,-4.3,-2,-6Zm72.8,-7.4c0.3,0.4,0.6,0.9,0.8,1.3c1,2.2,1.6,4.3,2,6.1l0,39.5c-0.5,2.2,-1.3,4.8,-2.8,7.4Zm-66.4,-8.4l4.2,0c-3.5,1.5,-6,3.9,-7.8,6.5l-0.1,0l0,0.1c-1.2,1.9,-2.1,3.9,-2.7,5.8l0,-6Zm-6.4,64.7l0,-5.9c0.6,1.8,1.5,3.8,2.7,5.7l0,0.1l0.1,0c1.8,2.6,4.3,5,7.8,6.5l-4.2,0Zm69.2,6.4l-4.2,0c3.5,-1.5,6,-3.9,7.8,-6.5l0,-0.1c1.3,-1.9,2.2,-3.9,2.8,-5.7l0,5.9Z" class="g6_1" />
<path d="M413.9,232.5c-8,-1.6,-9.1,-13.9,-9.1,-14l-0.1,-0.8l-26.5,-8.1l-26.6,8.1l0,0.8c-0.1,0.1,-1.1,12.4,-9.2,14l-0.9,0.2l0,19.1l0,0.3c0.1,0.3,9,34.2,36.4,41.6l0.3,0l0.3,0c27.4,-7.4,36.2,-41.3,36.3,-41.6l0,-19.4Zm-1.3,19.1c-0.6,2.3,-9.4,32.9,-34.4,39.8c-25.1,-6.9,-33.8,-37.5,-34.5,-39.8l0,-17c7.8,-2.3,9.6,-12.2,10,-15.1L378.2,212l24.4,7.5c0.4,2.9,2.3,12.8,10,15.1ZM400.3,222l0,-0.4l-20.5,-6.3c0,-0.8,-0.7,-1.5,-1.6,-1.5c-0.9,0,-1.6,0.7,-1.7,1.5l-20.4,6.3L356,222c-0.6,2.9,-2.5,9.9,-7.9,13.5c-0.3,-0.2,-0.7,-0.4,-1.1,-0.4c-0.9,0,-1.7,0.8,-1.7,1.8c0,0.7,0.5,1.3,1.1,1.6l0,12.6l0,0.2c0.9,3,9,29.2,30.1,36.7c0,0.9,0.8,1.6,1.7,1.6c0.9,0,1.6,-0.7,1.7,-1.7c8.6,-3,16,-9.4,22.1,-19c4.9,-7.9,7.3,-15.5,7.9,-17.6l0,-12.8c0.7,-0.3,1.1,-0.9,1.1,-1.6c0,-1,-0.7,-1.8,-1.7,-1.8c-0.4,0,-0.7,0.2,-1,0.4c-5.4,-3.6,-7.4,-10.6,-8,-13.5m-20.8,64.8c-0.4,-0.4,-0.8,-0.7,-1.3,-0.7c-0.6,0,-1,0.3,-1.3,0.7C356.6,279.6,348.6,254.4,347.6,251l0,-12.5c0.7,-0.3,1.1,-0.9,1.1,-1.6c0,-0.1,0,-0.2,0,-0.3c5.6,-3.7,7.7,-10.7,8.4,-14l19.8,-6c0.3,0.4,0.7,0.6,1.3,0.6c0.5,0,1,-0.2,1.3,-0.6l19.7,6c0.7,3.3,2.8,10.3,8.5,14c0,0.1,-0.1,0.2,-0.1,0.3c0,0.7,0.5,1.3,1.1,1.6l0,12.5c-1,3.4,-8.9,28.6,-29.2,35.8Z" class="g6_1" />
<path d="M874.8,314.3l-236.7,0l-7.6,7.6l0,60.6l7.6,7.7l236.7,0l7.7,-7.7l0,-60.6Zm5.6,8.5l0,5.9c-0.7,-1.8,-1.6,-3.8,-2.8,-5.7l0,-0.1l-0.1,0c-1.7,-2.7,-4.2,-5.1,-7.7,-6.5l4.1,0Zm-13.6,65.3l-220.8,0c-3.9,-1,-7.1,-3.2,-9.5,-6.5l0,-58.7c2,-2.9,5.1,-5.4,9.6,-6.5l220.8,0c4,0.9,7.2,3.1,9.6,6.5l0,58.6c-2.1,3,-5.2,5.5,-9.7,6.6M632.6,332.2c0.4,-2.2,1.3,-4.9,2.7,-7.5l0,55.1c-0.2,-0.5,-0.5,-0.9,-0.7,-1.4c-1,-2.1,-1.7,-4.3,-2,-6Zm245,-7.5c0.3,0.5,0.5,0.9,0.8,1.4c1,2.1,1.6,4.2,2,6l0,40.2c-0.5,2.2,-1.3,4.8,-2.8,7.4ZM639,316.4l4.1,0c-3.5,1.4,-6,3.8,-7.7,6.5l-0.1,0l0,0.1c-1.2,1.9,-2.1,3.9,-2.7,5.7l0,-5.9Zm-6.4,65.3l0,-5.9c0.6,1.8,1.5,3.8,2.7,5.7l0,0.1l0.1,0c1.7,2.6,4.2,5,7.7,6.5l-4.1,0Zm241.3,6.4l-4.1,0c3.5,-1.5,6,-3.9,7.7,-6.5l0.1,0l0,-0.1c1.2,-1.9,2.1,-3.9,2.8,-5.7l0,5.9Z" class="g6_1" />
<path d="M874.8,398l-236.7,0l-7.6,7.7l0,60.6l7.6,7.6l236.7,0l7.7,-7.6l0,-60.6Zm5.6,8.5l0,6c-0.7,-1.9,-1.6,-3.9,-2.8,-5.8l0,-0.1l-0.1,0c-1.7,-2.6,-4.2,-5,-7.7,-6.5l4.1,0Zm-13.6,65.3l-220.8,0c-3.9,-0.9,-7.1,-3.1,-9.5,-6.5l0,-58.6c2,-2.9,5.1,-5.5,9.6,-6.6l220.8,0c4,1,7.2,3.2,9.6,6.5l0,58.7c-2.1,2.9,-5.2,5.4,-9.7,6.5M632.6,415.9c0.4,-2.1,1.3,-4.8,2.7,-7.4l0,55c-0.2,-0.5,-0.5,-0.9,-0.7,-1.4c-1,-2.1,-1.7,-4.2,-2,-6Zm245,-7.4c0.3,0.4,0.5,0.8,0.8,1.3c1,2.1,1.6,4.3,2,6.1l0,40.1c-0.5,2.2,-1.3,4.9,-2.8,7.5ZM639,400.1l4.1,0c-3.5,1.5,-6,3.9,-7.7,6.5l-0.1,0l0,0.1c-1.2,1.9,-2.1,3.9,-2.7,5.8l0,-6Zm-6.4,65.3l0,-5.9c0.6,1.9,1.5,3.8,2.7,5.7l0,0.1l0.1,0c1.7,2.7,4.2,5.1,7.7,6.5l-4.1,0Zm241.3,6.4l-4.1,0c3.5,-1.4,6,-3.8,7.7,-6.5l0.1,0l0,-0.1c1.2,-1.9,2.1,-3.8,2.8,-5.7l0,5.9Z" class="g6_1" />
<path d="M874.8,481.7l-236.7,0l-7.6,7.7l0,60.6l7.6,7.7l236.7,0l7.7,-7.7l0,-60.6Zm5.6,8.6l0,5.9c-0.7,-1.9,-1.6,-3.9,-2.8,-5.7l0,-0.2l-0.1,0c-1.7,-2.6,-4.2,-5,-7.7,-6.5l4.1,0Zm-13.6,65.3l-220.8,0c-3.9,-1,-7.1,-3.2,-9.5,-6.6l0,-58.6c2,-2.9,5.1,-5.4,9.6,-6.6l220.8,0c4,1,7.2,3.2,9.6,6.6l0,58.6c-2.1,2.9,-5.2,5.5,-9.7,6.6M632.6,499.7c0.4,-2.2,1.3,-4.9,2.7,-7.5l0,55c-0.2,-0.4,-0.5,-0.9,-0.7,-1.3c-1,-2.2,-1.7,-4.3,-2,-6.1Zm245,-7.5c0.3,0.5,0.5,0.9,0.8,1.4c1,2.1,1.6,4.2,2,6l0,40.2c-0.5,2.1,-1.3,4.8,-2.8,7.4ZM639,483.8l4.1,0c-3.5,1.5,-6,3.9,-7.7,6.5l-0.1,0l0,0.2c-1.2,1.8,-2.1,3.8,-2.7,5.7l0,-5.9Zm-6.4,65.3l0,-5.9c0.6,1.9,1.5,3.9,2.7,5.8l0,0.1l0.1,0c1.7,2.6,4.2,5,7.7,6.5l-4.1,0Zm241.3,6.5l-4.1,0c3.5,-1.5,6,-3.9,7.7,-6.5l0.1,0l0,-0.1c1.2,-1.9,2.1,-3.9,2.8,-5.8l0,5.9Z" class="g6_1" />
<path d="M874.8,208.1l-236.7,0l-7.6,7.6l0,82.3l7.6,7.7l236.7,0l7.7,-7.7l0,-82.3Zm5.6,8.5l0,5.9c-0.7,-1.9,-1.6,-3.8,-2.8,-5.7l0,-0.1l-0.1,0c-1.7,-2.7,-4.2,-5.1,-7.7,-6.5l4.1,0Zm-13.6,87l-220.8,0c-3.9,-1,-7.1,-3.2,-9.5,-6.6l0,-80.3c2,-2.9,5.1,-5.4,9.6,-6.5l220.8,0c4,0.9,7.2,3.1,9.6,6.5l0,80.3c-2.1,2.9,-5.2,5.5,-9.7,6.6M632.6,226c0.4,-2.2,1.3,-4.9,2.7,-7.5l0,76.7c-0.2,-0.4,-0.5,-0.9,-0.7,-1.3c-1,-2.2,-1.7,-4.3,-2,-6.1Zm245,-7.5c0.3,0.5,0.5,0.9,0.8,1.4c1,2.1,1.6,4.2,2,6l0,61.9c-0.5,2.1,-1.3,4.8,-2.8,7.4ZM639,210.2l4.1,0c-3.5,1.4,-6,3.8,-7.7,6.5l-0.1,0l0,0.1c-1.2,1.9,-2.1,3.8,-2.7,5.7l0,-5.9Zm-6.4,86.9l0,-5.9c0.6,1.9,1.5,3.9,2.7,5.8l0,0.1l0.1,0c1.7,2.6,4.2,5,7.7,6.5l-4.1,0Zm241.3,6.5l-4.1,0c3.5,-1.5,6,-3.9,7.7,-6.5l0.1,0l0,-0.1c1.2,-1.9,2.1,-3.9,2.8,-5.8l0,5.9Z" class="g6_1" />
<path d="M584.5,481.2l-105.4,0l-7.6,7.6l0,60.1l7.6,7.6l105.4,0l7.7,-7.6l0,-60.1Zm5.6,8.5l0,5.9c-0.6,-1.8,-1.5,-3.8,-2.7,-5.7l0,-0.1l-0.1,0c-1.8,-2.7,-4.3,-5.1,-7.8,-6.5l4.2,0Zm-13.5,64.7l-89.5,0c-4,-0.9,-7.2,-3.1,-9.6,-6.5l0,-58.1c2.1,-2.9,5.1,-5.4,9.6,-6.5l89.5,0c4,0.9,7.2,3.1,9.6,6.5l0,58.1c-2.1,2.9,-5.1,5.4,-9.6,6.5m-103,-55.3c0.4,-2.2,1.3,-4.9,2.7,-7.4l0,54.4c-0.2,-0.5,-0.5,-0.9,-0.7,-1.4c-1,-2.1,-1.7,-4.2,-2,-6Zm113.8,-7.5c0.2,0.5,0.5,0.9,0.7,1.4c1,2.1,1.6,4.2,2,6l0,39.6c-0.5,2.2,-1.3,4.9,-2.7,7.5ZM480,483.3l4.1,0c-3.5,1.4,-5.9,3.8,-7.7,6.5l-0.1,0l0,0.1c-1.2,1.9,-2.1,3.9,-2.7,5.7l0,-5.9ZM473.6,548l0,-5.9c0.6,1.8,1.5,3.8,2.7,5.7l0,0.1l0.1,0c1.8,2.7,4.2,5.1,7.7,6.5l-4.1,0Zm110.1,6.4l-4.2,0c3.5,-1.4,6,-3.8,7.8,-6.5l0.1,0l0,-0.1c1.2,-1.9,2.1,-3.9,2.7,-5.7l0,5.9Z" class="g6_1" />
<path d="M454.6,481.2l-105.4,0l-7.7,7.6l0,60.1l7.7,7.6l105.4,0l7.6,-7.6l0,-60.1Zm5.5,8.5l0,5.9c-0.6,-1.8,-1.5,-3.8,-2.7,-5.7l0,-0.1l-0.1,0c-1.7,-2.7,-4.2,-5.1,-7.7,-6.5l4.1,0Zm-13.5,64.7l-89.5,0c-4,-0.9,-7.2,-3.1,-9.6,-6.5l0,-58.1c2.1,-2.9,5.1,-5.4,9.6,-6.5l89.6,0c3.9,0.9,7.1,3.1,9.5,6.5l0,58.1c-2,2.9,-5.1,5.4,-9.6,6.5m-103,-55.3c0.5,-2.2,1.3,-4.9,2.8,-7.4l0,54.4c-0.3,-0.5,-0.6,-0.9,-0.8,-1.4c-1,-2.1,-1.6,-4.2,-2,-6Zm113.8,-7.5c0.2,0.5,0.5,0.9,0.7,1.4c1,2.1,1.7,4.2,2,6l0,39.6c-0.4,2.2,-1.3,4.9,-2.7,7.5ZM350,483.3l4.2,0c-3.5,1.4,-6,3.8,-7.8,6.5l0,0.1c-1.3,1.9,-2.2,3.9,-2.8,5.7l0,-5.9ZM343.6,548l0,-5.9c0.6,1.8,1.5,3.8,2.8,5.7l0,0.1c1.8,2.7,4.3,5.1,7.8,6.5l-4.2,0Zm110.1,6.4l-4.1,0c3.5,-1.4,6,-3.8,7.7,-6.5l0.1,0l0,-0.1c1.2,-1.9,2.1,-3.9,2.7,-5.7l0,5.9Z" class="g6_1" />
<path d="M298.7,236.8l0,-18.4l-7.6,-7.6l-169.4,0l1.7,2.1l166.8,0l6.4,6.4l0,16.6l-6.4,6.4l-166.8,0l-1.7,2.1l169.4,0Z" class="g6_1" />
<path d="M120.9,247.1l-48.4,0L60.1,231.6l0,-8L72.5,208.1l48.4,0l12.4,15.5l0,8ZM73.5,245l46.4,0l11.3,-14.2l0,-6.4L119.9,210.2l-46.4,0L62.2,224.4l0,6.4Z" class="g6_1" />
<path d="M297.2,227.7c-4.2,-15.3,-20.5,-15.4,-21,-15.4l0,-1c0.6,0,17.5,0.2,21.9,16.2Z" class="g6_1" />
<path d="M276.2,243.8l0,0l0,-0.9c0.5,0,16.8,-0.1,21.1,-15.4l0.8,0.2c-4.4,16,-21.3,16.1,-21.9,16.1Z" class="g6_1" />
<path d="M125.5,215.9l163.2,0l0,-0.9l-163.2,0l0,0.9Z" class="g6_1" />
<path d="M125.5,240.2l163.2,0l0,-0.9l-163.2,0l0,0.9Z" class="g6_1" />
<path d="M127.9,227.6l-0.9,0c0,-10.2,8,-12.6,8.1,-12.6l0.3,0.9c-0.3,0.1,-7.5,2.2,-7.5,11.7Z" class="g6_1" />
<path d="M135.1,240.2C135,240.1,127,237.8,127,227.6l1,0c0,9.5,7.1,11.6,7.4,11.7Z" class="g6_1" />
<path d="M128.9,227.6c0,0.8,-0.6,1.4,-1.4,1.4c-0.8,0,-1.5,-0.6,-1.5,-1.4c0,-0.8,0.7,-1.5,1.5,-1.5c0.8,0,1.4,0.7,1.4,1.5Z" class="g6_1" />
<path d="M127.8,223.2L116.5,209.4l0.7,-0.6l11.3,13.8Z" class="g6_1" />
<path d="M117.2,246.4l-0.7,-0.6L127.8,232l0.7,0.6Z" class="g6_1" />
<path d="M66.4,227.6l-0.9,0c0,-2.7,-0.6,-5.1,-1.8,-7l0.8,-0.5c1.2,2.1,1.9,4.6,1.9,7.5Z" class="g6_1" />
<path d="M64.5,235.1l-0.8,-0.5c1.2,-1.9,1.8,-4.3,1.8,-7l0.9,0c0,2.9,-0.7,5.4,-1.9,7.5Z" class="g6_1" />
<path d="M64.5,227.6c0,0.8,0.6,1.5,1.4,1.5c0.8,0,1.5,-0.7,1.5,-1.5c0,-0.8,-0.7,-1.5,-1.5,-1.5c-0.8,0,-1.4,0.7,-1.4,1.5Z" class="g6_1" />
<path d="M65.6,223.2l-0.7,-0.6L76.2,208.8l0.7,0.6Z" class="g6_1" />
<path d="M76.2,246.4L64.9,232.6L65.6,232l11.3,13.8Z" class="g6_1" />
<path d="M291,921.3l-167.9,0l-52.1,0l-0.6,0L60.2,934.1l0,8l10.2,12.8l0.6,0l52.1,0l167.9,0l7.6,-7.6l0,-18.4Zm-2.6,28.5l-153.1,0c-0.3,-0.2,-3,-1,-5.1,-3.9l3.1,-3.8l0,-8l-3.1,-3.8c2.1,-2.9,4.8,-3.8,5.1,-3.9l153.1,0c3.3,2,6.3,5.1,8.1,10l0,3.4c-1.8,4.8,-4.8,7.9,-8.1,10M66.3,939.5c0.7,-0.2,1.1,-0.7,1.1,-1.4c0,-0.7,-0.4,-1.2,-1.1,-1.4c0,-1.1,-0.2,-2.2,-0.5,-3.2l8.3,-10.1l45.3,0l8.3,10.1c-0.3,1,-0.5,2,-0.6,3.2c-0.6,0.2,-1,0.7,-1,1.4c0,0.7,0.4,1.2,1,1.4c0.1,1.1,0.3,2.2,0.6,3.2l-8.3,10.1l-45.3,0L65.8,942.7c0.3,-1,0.5,-2.1,0.5,-3.2m62.2,-8.1c-0.2,0.4,-0.3,0.7,-0.4,1.1l-7.6,-9.1l1.6,0Zm-1.3,-5l6,0c-1.1,0.6,-2.4,1.6,-3.5,3.1Zm0.8,13c0.6,-0.2,1,-0.7,1,-1.3c0,-0.6,-0.4,-1.1,-1,-1.4c0.2,-1.7,0.6,-3.2,1.1,-4.5l2.1,2.7l0,6.4l-2.1,2.7c-0.5,-1.3,-0.9,-2.8,-1.1,-4.6m-7.5,13.4l7.6,-9.1c0.1,0.3,0.2,0.7,0.4,1l-6.4,8.1Zm9.2,-6.2c1.1,1.5,2.4,2.5,3.5,3.2l-6,0ZM296.5,929.8l0,4.2c-3,-6.1,-8.1,-9.1,-12.4,-10.6l6,0Zm-15.8,-6.4c1.8,0.3,4,1,6.1,2.1l-160.3,0l-1.7,-2.1Zm-209.3,0l1.5,0l-7.5,9.1c-0.1,-0.4,-0.3,-0.7,-0.4,-1Zm-9.1,11.5l2,-2.7c0.6,1.4,1,2.9,1.1,4.5c-0.5,0.3,-0.9,0.8,-0.9,1.4c0,0.6,0.4,1.1,0.9,1.3c-0.1,1.7,-0.5,3.2,-1.1,4.5l-2,-2.6Zm2.7,9.8c0.1,-0.3,0.3,-0.6,0.4,-1l7.5,9.1l-1.5,0Zm61.5,6l160.3,0c-2.1,1.1,-4.2,1.7,-6,2.1l-156,0Zm163.6,2.1l-6,0c4.3,-1.5,9.4,-4.5,12.4,-10.7l0,4.3Z" class="g6_1" />
<path d="M291,253.7l-167.9,0l-52.1,0l-0.6,0L60.1,266.5l0,8l10.2,12.8l0.7,0l52.1,0l167.9,0l7.6,-7.6l0,-18.4Zm-2.6,28.5l-153.1,0c-0.4,-0.2,-3.1,-1,-5.1,-3.9l3.1,-3.8l0,-8l-3.1,-3.8c2,-2.9,4.7,-3.8,5.1,-3.9l153.1,0c3.3,2,6.3,5.2,8.1,10l0,3.4c-1.8,4.8,-4.8,7.9,-8.1,10M66.3,271.9c0.6,-0.2,1.1,-0.7,1.1,-1.4c0,-0.7,-0.5,-1.2,-1.1,-1.4C66.2,268,66,266.9,65.7,265.9l8.4,-10.1l45.2,0l8.4,10.1c-0.3,1,-0.5,2,-0.6,3.2c-0.6,0.2,-1.1,0.7,-1.1,1.4c0,0.7,0.5,1.2,1.1,1.4c0.1,1.1,0.3,2.2,0.6,3.2l-8.4,10.1l-45.2,0L65.7,275.1c0.3,-1,0.5,-2.1,0.6,-3.2m62.2,-8.1c-0.2,0.4,-0.3,0.7,-0.5,1.1l-7.5,-9.1l1.6,0Zm-1.3,-5l6,0c-1.1,0.6,-2.4,1.6,-3.5,3.1Zm0.8,13c0.6,-0.2,0.9,-0.7,0.9,-1.3c0,-0.6,-0.3,-1.1,-0.9,-1.4c0.2,-1.7,0.5,-3.2,1.1,-4.5l2.1,2.7l0,6.4l-2.1,2.7c-0.6,-1.3,-0.9,-2.8,-1.1,-4.6m-7.5,13.4l7.5,-9.1c0.2,0.4,0.3,0.7,0.5,1l-6.4,8.1Zm9.2,-6.2c1.1,1.6,2.4,2.5,3.5,3.2l-6,0ZM296.5,262.2l0,4.2c-3,-6.1,-8.1,-9.1,-12.4,-10.6l6,0Zm-15.8,-6.4c1.8,0.3,4,1,6.1,2.1l-160.4,0l-1.7,-2.1Zm-209.3,0l1.5,0l-7.5,9.1c-0.1,-0.4,-0.3,-0.7,-0.5,-1Zm-9.2,11.5l2.1,-2.7c0.6,1.4,1,2.9,1.1,4.5c-0.5,0.3,-0.9,0.8,-0.9,1.4c0,0.6,0.4,1.1,0.9,1.3c-0.1,1.7,-0.5,3.2,-1.1,4.5l-2.1,-2.6Zm2.7,9.8c0.2,-0.3,0.4,-0.6,0.5,-1l7.5,9.1l-1.5,0Zm61.6,6l160.3,0c-2.1,1.1,-4.2,1.7,-6,2.1l-156.1,0Zm163.6,2.1l-6,0c4.3,-1.5,9.4,-4.5,12.4,-10.7l0,4.3Z" class="g6_1" />
<path d="M141.8,88.3L177.4,91l-35.6,2.7L106.3,91Zm212.7,10L390,101l35.6,-2.7L390,95.6Zm174.6,-26l34.1,-2.5l-42,-3.1l64.2,-4.8L528.2,57.6l79.3,-5.9L472.5,41.6l36.3,-2.7l-66.2,-5l-58.9,4.4L357.3,34.9L422.2,30l-52,-3.9l-36.3,2.7L291.8,25.7l-39.3,2.9l40,3l-44.1,3.3l-44,-3.3l25.5,-1.9L199.4,27.4l-97.5,7.3l34.6,2.6L26.9,45.5l64.5,4.8l-34,2.6l42,3.1L35.1,60.8l57.2,4.3L13.1,71L122,79.1L72.1,82.9l52.7,3.9l13.6,-1l39.6,3l58.8,-4.4l26.4,3.4l-68.5,5.1l94.1,7.1l20.6,-1.6L272.3,95.6l52.9,-3.9l37.1,2.8l24.3,-1.8l34.5,2.5l97.5,-7.3L484.1,85.4L593.6,77.2Z" class="g5_1" />
<path d="M292.7,165.1l28.8,2.2l-28.8,2.2l-28.9,-2.2Zm172.7,8.1l28.9,2.2l28.8,-2.2l-28.8,-2.1ZM607.3,152.1l27.6,-2l-34.1,-2.6L653,143.6l-46.5,-3.5l64.4,-4.8L561.3,127.1l29.4,-2.2l-53.7,-4l-47.8,3.6l-21.5,-2.8l52.7,-4l-42.3,-3.1l-29.4,2.2l-34.2,-2.6l-32,2.4l32.5,2.5l-35.8,2.6l-35.7,-2.6l20.7,-1.6l-24.8,-1.9l-79.2,6l28.1,2.1l-89,6.6l52.4,3.9l-27.6,2.1l34.1,2.6L206,142.8l46.5,3.4L188.1,151l88.4,6.7l-40.5,3l42.8,3.2l11.1,-0.8l32.1,2.4l47.8,-3.6l21.5,2.8l-55.7,4.2l76.4,5.7l16.8,-1.3l-30.1,-2.2l42.9,-3.2l30.1,2.2l19.8,-1.5l28,2.1l79.2,-5.9l-28,-2.1l89,-6.6Z" class="g5_1" />
<path d="M598.6,92.6l23.8,1.8l-23.8,1.7L574.8,94.4Zm142.5,6.6l23.8,1.8l23.8,-1.8L764.9,97.5Zm117,-17.3l22.8,-1.7L852.7,78.1l43.1,-3.3L857.5,72l53.1,-4L820.1,61.2l24.3,-1.8L800.1,56.1L760.7,59L742.9,56.7l43.5,-3.2L751.6,50.9l-24.3,1.8L699.1,50.6l-26.4,2l26.8,2L670,56.8L640.5,54.6l17.1,-1.3L637.2,51.8l-65.3,4.8L595,58.4l-73.4,5.5l43.2,3.2L542,68.8l28.1,2.1l-43,3.2L565.4,77l-53.1,4l73,5.4l-33.4,2.5l35.3,2.6l9.1,-0.6l26.5,2l39.4,-3l17.7,2.3L634,95.6l63.1,4.8l13.7,-1.1L686,97.5l35.5,-2.7l24.8,1.9l16.3,-1.2l23.1,1.7L851,92.3L827.9,90.6l73.4,-5.5Z" class="g5_1" />
<path d="M133,31.8c-0.6,4.3,0.3,9.7,0.3,9.7c0,0,-3.1,-2.3,-6.5,-4.3c-2,-1.1,-3.8,-3.6,-4.8,-5.5c-0.8,-1.3,-1.2,-2.3,-1.2,-2.3c-4.8,5.1,-1.7,11.1,-1.7,11.1c-7.4,-1.6,-12,0.3,-12,0.3c14,9.2,6.6,9.9,-1.5,13.8c-8.1,3.8,-8.7,8.6,-8.7,8.6c9.6,-3.2,13.5,0.9,13.5,0.9c-5.2,4.9,-0.6,12.7,-0.6,12.7c5.1,9.7,17.6,13.8,28.8,15.5c11.1,1.7,21,1,21,1l-25.6,8l-22.9,5.8c0,0,-22.8,-2.5,-31.2,-21.7C71.6,66.1,86.2,50.9,84.7,49.9c-1.4,-1,-3.2,1.1,-3.3,1.4c6.3,-18.2,25.5,-18,26.2,-19.9c0.8,-2,-3.8,-2.1,-3.8,-2.1c19.4,-6.4,29.2,2.5,29.2,2.5Z" class="g6_1" />
<path d="M877.3,83.8l0,58.3c22.3,-0.1,25.2,0,29,-4.9l0,-57.3c-7.2,3.7,-14.5,3.9,-29,3.9Z" class="g4_1" />
<path d="M877.3,83.8l0,58.3c22.3,-0.1,25.2,0,29,-4.9l0,-57.3c-7.2,3.7,-14.5,3.9,-29,3.9Z" class="g7_1" />
<path d="M876.4,88.1c24.8,0,27,-1.8,29.3,-3.5m-28.4,52.7c30,3.4,27.4,-5.4,28.7,-5.7" class="g8_1" />
<path d="M301.9,131.1c-0.1,0.5,-0.1,1,0.2,1.4c0.3,0.5,8.3,12.2,18.7,12.2c2.3,0,4.6,-0.6,6.8,-1.8c0.9,-0.6,1.8,-1.2,2.5,-1.7c5.5,-3.4,10.8,-8.3,12.7,-10.1Z" class="g4_1" />
<path d="M46.5,94.1l0,57.3l54.2,-7.1l0,-57.3Z" class="g4_1" />
<path d="M46.5,94.1l0,57.3l54.2,-7.1l0,-57.3L46.5,94.1Z" class="g7_1" />
<path d="M47.6,147.1l53.1,-7.5M47.6,97.9l53.1,-6.8" class="g8_1" />
<path d="M100.7,87l-37,-5.5l0,57.3l37,5.5Z" class="g9_1" />
<path d="M100.7,87l-37,-5.5l0,57.3l37,5.5l0,-57.3Z" class="g7_1" />
<path d="M398.3,138.8C304,156,158,121.6,63.7,138.8l0,-57.3C158,64.3,304,98.7,398.3,81.5Z" class="g4_1" />
<path d="M398.3,138.8C304,156,158,121.6,63.7,138.8l0,-57.3C158,64.3,304,98.7,398.3,81.5l0,57.3Z" class="g7_1" />
<path d="M399.7,133.3c0,0,-31.3,13.2,-175.2,0.5C122.9,124.8,72.1,132.7,64.3,134m334,-48c0,0,-30.3,12.2,-174.2,-0.5C122.5,76.5,71.8,84.4,63.9,85.8" class="g8_1" />
<path d="M877.8,156.5l-479.6,0l0,-92.6l479.6,0l0,92.6Z" class="g4_1" />
<path d="M877.8,156.5l-479.6,0l0,-92.6l479.6,0l0,92.6Z" class="g10_1" />
<path d="M395,54.2l0,112c1.6,-3.9,3.2,-5.5,3.2,-5.5l0,-101c0,0,-1.6,-1.6,-3.2,-5.5Z" class="g4_1" />
<path d="M395,54.2l0,112c1.6,-3.9,3.2,-5.5,3.2,-5.5l0,-101c0,0,-1.6,-1.6,-3.2,-5.5Z" class="g10_1" />
<path d="M398.2,75.9c0,0,1.6,-15.8,12.8,-15.8l33.6,0c0,0,11,3.8,31.4,3.8m-77.8,80.6c0,0,1.6,15.8,12.8,15.8l33.6,0c0,0,11,-3.8,31.4,-3.8" class="g10_1" />
<path d="M881,54.2l0,112c-1.6,-3.9,-3.2,-5.5,-3.2,-5.5l0,-101c0,0,1.6,-1.6,3.2,-5.5Z" class="g4_1" />
<path d="M881,54.2l0,112c-1.6,-3.9,-3.2,-5.5,-3.2,-5.5l0,-101c0,0,1.6,-1.6,3.2,-5.5Z" class="g10_1" />
<path d="M877.8,75.9c0,0,-1.7,-15.8,-12.9,-15.8l-33.6,0c0,0,-10.9,3.8,-31.3,3.8m77.8,80.6c0,0,-1.7,15.8,-12.9,15.8l-33.6,0c0,0,-10.9,-3.8,-31.3,-3.8" class="g10_1" />
<path d="M844.3,63.9c-8,1.4,-17.5,2.9,-26.3,2.9l-360.1,0c-8.7,0,-18.3,-1.5,-26.3,-2.9m0,92.6c8,-1.4,17.6,-2.9,26.3,-2.9l360.1,0c8.8,0,18.3,1.5,26.3,2.9" class="g8_1" />
<path d="M152.3,56c5.2,2.1,6.6,7.1,6.6,7.1C154.6,63,153.3,59.6,152.3,56Z" class="g4_1" />
<path d="M391.2,146.5c-1,-5.3,-4.8,-14,-12,-18.5c-6,-3.8,-11.2,-3,-11.2,-4.8c-0.1,-2.4,6.6,-1.7,6.6,-1.7c-7.2,-4.1,-17.6,1,-19.1,-1.4c-0.8,-1.4,4.9,-3.4,4.9,-3.4c-8.9,-0.4,-19.3,4.2,-23.5,8.3c10.6,-3.5,25.4,-1.5,32.2,4.3c-2.9,-1.6,-6,-2.7,-9.2,-3.3c-12,-2.4,-25.3,1.2,-33.3,4.5c-9,3,-15.9,7.6,-15.9,7.6c-6,3.4,-17,6.7,-24.4,3.5c0,0,11.6,19.5,26,12.7c1.1,-0.6,2.1,-1.2,3,-1.8c7.9,-4.2,15.8,-11.3,15.8,-11.3c2.7,-1.9,11.2,-7.5,21.4,-10.5c2.2,-0.7,4.5,-0.8,6.7,-0.5c5.7,0.7,10.6,4.4,12.3,8.7c4.4,-0.7,15.5,2.9,19.7,7.6Z" class="g6_1" />
<path d="M158.9,63.1c0,0,-1.4,-5,-6.6,-7.1c1,3.6,2.2,7,6.6,7.1M142.2,76.6C141,70.1,132,68.9,127.4,71.9c1.6,-4.3,6.1,-8.2,9.6,-9.4c-2,-0.8,-4.3,-1.4,-6.8,-2c2.9,-2.2,10.2,-4,13.9,-3.6c-0.7,-0.2,-1.4,-0.4,-2.2,-0.5l0.7,-4.2C142.2,48.6,139,44.6,135.2,42.1c-1.9,-5.4,-0.1,-15.3,2.5,-17.9c-1.3,14.2,18.8,23,22.7,33.4C158.2,48.7,148.9,42.8,144.5,37.4c-1.3,-3.6,0,-9.5,1.7,-11.5c-0.8,9.5,9.3,17.2,14.6,22.7c6.3,6.5,7.9,12.1,6.9,16.6c1.4,0.4,3.3,1.9,2.9,4.2c2.1,-0.4,4.3,-2.7,4.8,-4.2c0.9,7.2,-3.5,14.5,-8.3,16.6c0,0,1.4,-3.3,-0.7,-6c-2,-2.6,-7.9,-2.8,-9.9,-2.7c0,0,2.5,-3.6,1.6,-5.5C157,65.3,145.3,65.9,140,67.7c1.8,-0.2,6,0.4,7.4,1.1c-0.8,1.2,-3.1,6.2,-1.6,7.8c1.3,1.4,3.1,-0.7,3.3,-0.9c-0.2,0.5,-1.9,5.6,-0.7,6.9c1.2,1.3,4,0.5,4,0.5c-1.8,4.3,-8.7,7.1,-13.4,7c1.7,-0.5,4.6,-3.4,5,-5.2c-1.2,0.6,-4.5,0.8,-5.7,0.5c1.5,-0.5,4.7,-4.4,3.9,-8.8Z" class="g6_1" />
<path d="M117.2,49.9c0.8,-2.8,-4.5,-7.7,-6.6,-8.6c7.6,-0.1,11.3,1.4,11.3,1.4C120,39.8,119.5,35.3,120.8,31.9c3.8,9.9,18.4,12,21.8,20.3l-0.7,4.2c-5.8,-0.7,-14.3,1,-18.6,5.8c1.5,0,5.3,0.9,6.8,1.4c-6.5,1,-15.5,6.7,-18.2,9.5c0.8,-3.8,2,-6.9,1.2,-9.2c-1.2,-3.2,-5,-4.6,-12.7,-3.3c5.3,-5,16,-7.9,16.8,-10.7Z" class="g6_1" />
<path d="M74.4,75.1L76,78.5c-2.1,0.4,-4.5,8.6,-4.5,8.6C66.2,84.1,70.7,74.2,70.7,74.2Z" class="g6_1" />
<path d="M62.8,73.7c0,0,2.7,-2,4.2,-2.3l2.4,2.1l-1.2,0.4c0,0,-2.4,7.6,-1.4,10.8l1.5,4.4c0,0,-5,-1,-5.7,-2.9c0,0,-1.6,-8.6,0.2,-12.5Z" class="g6_1" />
<path d="M59.9,77c0,0,0.4,9.8,1.4,10.6L65,89.2l0.1,3.4c0,0,-6.6,-2.1,-7.2,-4.7C57.4,85.4,57,79.2,57,79.2c0,0,1.1,-1.7,2.9,-2.2Z" class="g6_1" />
<path d="M308.6,984.8l-259.7,0l-7.6,7.6l0,172.3l7.6,7.7l259.7,0l7.7,-7.7l0,-172.3Zm5.5,8.5l0,5.9c-0.6,-1.8,-1.5,-3.8,-2.7,-5.7l0,-0.1l-0.1,0c-1.7,-2.6,-4.2,-5,-7.7,-6.5l4.1,0Zm-13.5,177l-243.8,0c-4,-1,-7.2,-3.2,-9.6,-6.6l0,-170.2c2.1,-3,5.2,-5.5,9.7,-6.6l243.8,0c4,1,7.2,3.2,9.6,6.5l0,170.3c-2.1,2.9,-5.2,5.5,-9.7,6.6M43.4,1002.7c0.4,-2.2,1.2,-4.9,2.7,-7.4l0,166.6c-0.3,-0.4,-0.5,-0.9,-0.8,-1.3c-1,-2.2,-1.6,-4.3,-1.9,-6.1Zm268,-7.5c0.3,0.5,0.5,0.9,0.8,1.4c1,2.1,1.6,4.3,1.9,6l0,151.9c-0.4,2.1,-1.2,4.8,-2.7,7.4ZM49.8,986.9l4.1,0c-3.5,1.5,-6,3.9,-7.7,6.5l-0.1,0l0,0.1c-1.2,1.9,-2.1,3.9,-2.7,5.7l0,-5.9Zm-6.4,177l0,-6c0.6,1.9,1.5,3.9,2.7,5.8l0,0.1l0.1,0c1.7,2.6,4.2,5,7.7,6.5l-4.1,0Zm264.3,6.4l-4.1,0c3.5,-1.5,6,-3.9,7.7,-6.5l0.1,0l0,-0.1c1.2,-1.9,2.1,-3.9,2.7,-5.8l0,6Z" class="g6_1" />
<path d="M597.3,580.9l-259.6,0l-7.7,7.7l0,374.1l7.7,7.6l259.6,0l7.7,-7.6l0,-374.1Zm5.6,8.5l0,5.9c-0.6,-1.8,-1.5,-3.8,-2.7,-5.7l0,-0.1l-0.1,0c-1.8,-2.6,-4.3,-5,-7.8,-6.5l4.2,0ZM589.4,968.2l-243.8,0c-4,-0.9,-7.2,-3.1,-9.6,-6.5l0,-372.1c2.1,-3,5.1,-5.5,9.6,-6.6l243.8,0c4,1,7.2,3.2,9.6,6.5l0,372.2c-2.1,2.9,-5.1,5.4,-9.6,6.5M332.1,598.8c0.5,-2.1,1.3,-4.8,2.7,-7.4l0,368.5c-0.2,-0.5,-0.5,-0.9,-0.7,-1.4c-1,-2.1,-1.6,-4.2,-2,-6Zm268.1,-7.4c0.2,0.4,0.5,0.8,0.7,1.3c1,2.1,1.6,4.3,2,6l0,353.7c-0.5,2.2,-1.3,4.9,-2.7,7.5ZM338.5,583l4.2,0c-3.5,1.5,-6,3.9,-7.8,6.5l-0.1,0l0,0.1c-1.2,1.9,-2.1,3.9,-2.7,5.7l0,-5.9Zm-6.4,378.8l0,-5.9c0.6,1.9,1.5,3.9,2.7,5.7l0,0.1l0.1,0c1.8,2.7,4.3,5.1,7.8,6.5l-4.2,0Zm264.4,6.4l-4.2,0c3.5,-1.4,6,-3.8,7.8,-6.5l0.1,0l0,-0.1c1.2,-1.8,2.1,-3.8,2.7,-5.7l0,5.9Z" class="g6_1" />
<path d="M886.1,580.9l-259.7,0l-7.6,7.7l0,374.1l7.6,7.6l259.7,0l7.7,-7.6l0,-374.1Zm5.5,8.5l0,5.9c-0.6,-1.8,-1.5,-3.8,-2.7,-5.7l0,-0.1l-0.1,0c-1.7,-2.6,-4.2,-5,-7.7,-6.5l4.1,0ZM878.1,968.2l-243.8,0c-4,-0.9,-7.2,-3.1,-9.6,-6.5l0,-372.1c2.1,-3,5.2,-5.5,9.7,-6.6l243.8,0c4,1,7.2,3.2,9.6,6.5l0,372.2c-2.1,2.9,-5.2,5.4,-9.7,6.5M620.9,598.8c0.4,-2.1,1.2,-4.8,2.7,-7.4l0,368.5c-0.3,-0.5,-0.5,-0.9,-0.8,-1.4c-1,-2.1,-1.6,-4.2,-1.9,-6Zm268,-7.4c0.3,0.4,0.5,0.8,0.8,1.3c1,2.1,1.6,4.3,1.9,6l0,353.7c-0.4,2.2,-1.2,4.9,-2.7,7.5ZM627.3,583l4.1,0c-3.5,1.5,-6,3.9,-7.7,6.5l-0.1,0l0,0.1c-1.2,1.9,-2.1,3.9,-2.7,5.7l0,-5.9Zm-6.4,378.8l0,-5.9c0.6,1.9,1.5,3.9,2.7,5.7l0,0.1l0.1,0c1.7,2.7,4.2,5.1,7.7,6.5l-4.1,0Zm264.3,6.4l-4.1,0c3.5,-1.4,6,-3.8,7.7,-6.5l0.1,0l0,-0.1c1.2,-1.8,2.1,-3.8,2.7,-5.7l0,5.9Z" class="g6_1" />
<path d="M886.1,984.6l-548.4,0l-7.7,7.7l0,172.4l7.7,7.7l548.4,0l7.7,-7.7l0,-172.4Zm5.5,8.5l0,5.9c-0.6,-1.8,-1.5,-3.8,-2.7,-5.7l0,-0.1l-0.1,0c-1.7,-2.6,-4.2,-5,-7.7,-6.5l4.1,0Zm-13.5,177.2l-532.5,0c-4,-1,-7.2,-3.2,-9.6,-6.6l0,-170.4c2.1,-3,5.1,-5.5,9.6,-6.6l532.6,0c4,1,7.2,3.2,9.6,6.5l0,170.5c-2.1,2.9,-5.2,5.5,-9.7,6.6m-546,-167.8c0.5,-2.1,1.3,-4.8,2.7,-7.4l0,166.8c-0.2,-0.4,-0.5,-0.9,-0.7,-1.3c-1,-2.2,-1.6,-4.3,-2,-6.1Zm556.8,-7.4c0.3,0.4,0.5,0.8,0.8,1.3c1,2.1,1.6,4.3,1.9,6l0,152.1c-0.4,2.1,-1.2,4.8,-2.7,7.4ZM338.5,986.7l4.2,0c-3.5,1.5,-6,3.9,-7.8,6.5l-0.1,0l0,0.1c-1.2,1.9,-2.1,3.9,-2.7,5.7l0,-5.9Zm-6.4,177.2l0,-6c0.6,1.9,1.5,3.9,2.7,5.8l0,0.1l0.1,0c1.8,2.6,4.3,5,7.8,6.5l-4.2,0Zm553.1,6.4l-4.1,0c3.5,-1.5,6,-3.9,7.7,-6.5l0.1,0l0,-0.1c1.2,-1.9,2.1,-3.9,2.7,-5.8l0,6Z" class="g6_1" />
<path d="M300.3,610.8c-0.7,0,-1.3,0.4,-1.7,1l-145,0l-0.3,0.6c-2.4,6.3,-6.5,8.1,-7.3,8.4l-18.1,0l-7.3,-7.7l-48.1,0l-7.3,7.7l-6.4,0l-7.7,7.7l0,66l7.7,7.7l75.5,0l7.6,-7.7l0,-66l-5.5,-5.6l10,0l0.1,0c0.2,-0.1,2.8,-1,5.5,-4.1c2.4,-1.5,6.7,-3.9,10.9,-4.9l135.7,0c0.4,0.5,1,0.9,1.7,0.9c1.1,0,1.9,-0.9,1.9,-2c0,-1.1,-0.8,-2,-1.9,-2m-173.1,13c0.9,0.3,1.9,0.6,2.9,1.1c0.5,0.2,0.9,0.5,1.4,0.8l-6,0ZM73.4,615.2l46.3,0l6.3,6.7l-18.1,20.9l-22.7,0L67.1,621.9Zm-5.8,10.5l-6,0c0.4,-0.3,0.9,-0.6,1.4,-0.8c1,-0.5,2,-0.8,2.9,-1.1Zm-14.4,3.6l6.5,-6.4l5.5,0l0.1,0.1c-1.8,0.7,-3.7,1.5,-5.4,2.7l-0.2,0c-2.6,1.8,-5,4.3,-6.5,7.8Zm6.5,70.8l-6.5,-6.4l0,-4.2c1.5,3.5,3.9,6,6.5,7.8l0.2,0c1.8,1.3,3.8,2.2,5.7,2.8Zm9.4,0c-2.2,-0.5,-4.9,-1.3,-7.5,-2.8l69.9,0c-0.5,0.3,-0.9,0.6,-1.4,0.8c-2.1,1,-4.2,1.6,-6,2Zm70.7,-6.4l-6.4,6.4l-5.9,0c1.8,-0.6,3.8,-1.5,5.7,-2.8l0.1,0c2.7,-1.8,5.1,-4.3,6.5,-7.8Zm0,-7.1c-0.9,4,-3.1,7.2,-6.5,9.6l-73.5,0c-2.9,-2.1,-5.5,-5.1,-6.6,-9.6l0,-50.2c1,-4,3.2,-7.2,6.6,-9.6l8.8,0l15.6,18.1l24.7,0l15.6,-18.1l8.8,0c3.4,2.4,5.6,5.6,6.5,9.6Zm0,-57.3l0,4.2c-1.4,-3.5,-3.8,-6,-6.5,-7.8l-0.1,0c-1.8,-1.2,-3.6,-2,-5.4,-2.7l0.1,-0.1l5.5,0Zm13.9,-12.8c0.5,-0.8,0.9,-1.7,1.3,-2.6l4.1,0c-2,0.7,-3.8,1.7,-5.4,2.6Z" class="g6_1" />
<path d="M300.3,715c-0.7,0,-1.3,0.4,-1.7,0.9l-145,0l-0.3,0.7c-2.4,6.3,-6.5,8.1,-7.3,8.4l-18.1,0l-7.3,-7.8l-48.1,0L65.2,725l-6.4,0l-7.7,7.6l0,66.1l7.7,7.7l75.5,0l7.6,-7.7l0,-66.1l-5.5,-5.5l10,0l0.1,-0.1c0.2,0,2.8,-0.9,5.5,-4c2.4,-1.5,6.7,-4,10.9,-5l135.7,0c0.4,0.6,1,0.9,1.7,0.9c1.1,0,1.9,-0.8,1.9,-1.9c0,-1.1,-0.8,-2,-1.9,-2M127.2,727.9c0.9,0.4,1.9,0.7,2.9,1.2c0.5,0.2,0.9,0.5,1.4,0.7l-6,0ZM73.4,719.3l46.3,0l6.3,6.8l-18.1,20.8l-22.7,0L67.1,726.1Zm-5.8,10.5l-6,0c0.4,-0.2,0.9,-0.5,1.4,-0.7c1,-0.5,2,-0.8,2.9,-1.2Zm-14.4,3.7l6.5,-6.4l5.5,0l0.1,0.1c-1.8,0.6,-3.7,1.5,-5.4,2.6l-0.2,0l0,0.1c-2.6,1.8,-5,4.3,-6.5,7.8Zm6.5,70.8l-6.5,-6.5l0,-4.1c1.5,3.5,3.9,6,6.5,7.7l0,0.1l0.2,0c1.8,1.3,3.8,2.1,5.7,2.8Zm9.4,0c-2.2,-0.5,-4.9,-1.3,-7.5,-2.8l69.9,0c-0.5,0.3,-0.9,0.5,-1.4,0.8c-2.1,1,-4.2,1.6,-6,2Zm70.7,-6.5l-6.4,6.5l-5.9,0c1.8,-0.7,3.8,-1.5,5.7,-2.8l0.1,0l0,-0.1c2.7,-1.7,5.1,-4.2,6.5,-7.7Zm0,-7c-0.9,4,-3.1,7.2,-6.5,9.6l-73.5,0c-2.9,-2.1,-5.5,-5.2,-6.6,-9.7l0,-50.1c1,-4,3.2,-7.2,6.6,-9.6l8.8,0l15.6,18l24.7,0l15.6,-18l8.8,0c3.4,2.4,5.6,5.6,6.5,9.6Zm0,-57.3l0,4.2c-1.4,-3.5,-3.8,-6,-6.5,-7.8l0,-0.1l-0.1,0c-1.8,-1.1,-3.6,-2,-5.4,-2.6l0.1,-0.1l5.5,0Zm13.9,-12.9c0.5,-0.7,0.9,-1.6,1.3,-2.6l4.1,0c-2,0.8,-3.8,1.7,-5.4,2.6Z" class="g6_1" />
<path d="M300.3,819.2c-0.7,0,-1.3,0.3,-1.7,0.9l-145,0l-0.3,0.7c-2.4,6.2,-6.5,8.1,-7.3,8.4l-18.1,0l-7.3,-7.8l-48.1,0l-7.3,7.8l-6.4,0l-7.7,7.6l0,66.1l7.7,7.6l75.5,0l7.6,-7.6l0,-66.1l-5.5,-5.5l10,0l0.1,-0.1c0.2,0,2.8,-0.9,5.5,-4c2.4,-1.5,6.7,-4,10.9,-5l135.7,0c0.4,0.5,1,0.9,1.7,0.9c1.1,0,1.9,-0.9,1.9,-2c0,-1,-0.8,-1.9,-1.9,-1.9M127.2,832.1c0.9,0.3,1.9,0.7,2.9,1.2c0.5,0.2,0.9,0.5,1.4,0.7l-6,0ZM73.4,823.5l46.3,0l6.3,6.7l-18.1,20.9l-22.7,0L67.1,830.2ZM67.6,834l-6,0c0.4,-0.2,0.9,-0.5,1.4,-0.7c1,-0.5,2,-0.9,2.9,-1.2Zm-14.4,3.7l6.5,-6.4l5.5,0l0.1,0.1c-1.8,0.6,-3.7,1.4,-5.4,2.6l-0.2,0l0,0.1c-2.6,1.7,-5,4.2,-6.5,7.7Zm6.5,70.7L53.2,902l0,-4.1c1.5,3.5,3.9,6,6.5,7.7l0,0.1l0.2,0c1.8,1.2,3.8,2.1,5.7,2.7Zm9.4,0c-2.2,-0.4,-4.9,-1.3,-7.5,-2.7l69.9,0c-0.5,0.2,-0.9,0.5,-1.4,0.7c-2.1,1,-4.2,1.7,-6,2ZM139.8,902l-6.4,6.4l-5.9,0c1.8,-0.6,3.8,-1.5,5.7,-2.7l0.1,0l0,-0.1c2.7,-1.7,5.1,-4.2,6.5,-7.7Zm0,-7.1c-0.9,4,-3.1,7.2,-6.5,9.6l-73.5,0c-2.9,-2,-5.5,-5.1,-6.6,-9.6l0,-50.2c1,-3.9,3.2,-7.1,6.6,-9.5l8.8,0l15.6,18l24.7,0l15.6,-18l8.8,0c3.4,2.4,5.6,5.6,6.5,9.6Zm0,-57.2l0,4.1c-1.4,-3.5,-3.8,-6,-6.5,-7.7l0,-0.1l-0.1,0c-1.8,-1.2,-3.6,-2,-5.4,-2.6l0.1,-0.1l5.5,0Zm13.9,-12.9c0.5,-0.8,0.9,-1.6,1.3,-2.6l4.1,0c-2,0.8,-3.8,1.7,-5.4,2.6Z" class="g6_1" />
<path d="M300.3,298.3c-0.7,0,-1.3,0.4,-1.7,0.9l-145,0l-0.3,0.7c-2.4,6.3,-6.5,8.1,-7.3,8.4l-18.1,0l-7.3,-7.8l-48.1,0l-7.3,7.8l-6.4,0L51.1,316l0,66l7.7,7.7l75.5,0l7.6,-7.7l0,-66l-5.5,-5.6l10,0l0.1,0c0.2,-0.1,2.8,-1,5.5,-4.1c2.4,-1.5,6.7,-3.9,10.9,-5l135.7,0c0.4,0.6,1,1,1.7,1c1.1,0,1.9,-0.9,1.9,-2c0,-1.1,-0.8,-2,-1.9,-2m-173.1,13c0.9,0.3,1.9,0.6,2.9,1.1c0.5,0.2,0.9,0.5,1.4,0.8l-6,0ZM73.4,302.7l46.3,0l6.3,6.7l-18.1,20.9l-22.7,0L67.1,309.4Zm-5.8,10.5l-6,0c0.4,-0.3,0.9,-0.6,1.4,-0.8c1,-0.5,2,-0.8,2.9,-1.1Zm-14.4,3.6l6.5,-6.4l5.5,0l0.1,0.1c-1.8,0.6,-3.7,1.5,-5.4,2.7l-0.2,0c-2.6,1.8,-5,4.3,-6.5,7.8Zm6.5,70.8l-6.5,-6.4l0,-4.2c1.5,3.5,3.9,6,6.5,7.8l0.2,0c1.8,1.3,3.8,2.2,5.7,2.8Zm9.4,0c-2.2,-0.5,-4.9,-1.3,-7.5,-2.8l69.9,0c-0.5,0.3,-0.9,0.6,-1.4,0.8c-2.1,1,-4.2,1.6,-6,2Zm70.7,-6.4l-6.4,6.4l-5.9,0c1.8,-0.6,3.8,-1.5,5.7,-2.8l0.1,0c2.7,-1.8,5.1,-4.3,6.5,-7.8Zm0,-7.1c-0.9,4,-3.1,7.2,-6.5,9.6l-73.5,0c-2.9,-2.1,-5.5,-5.2,-6.6,-9.6l0,-50.2c1,-4,3.2,-7.2,6.6,-9.6l8.8,0l15.6,18.1l24.7,0l15.6,-18.1l8.8,0c3.4,2.4,5.6,5.6,6.5,9.6Zm0,-57.3l0,4.2c-1.4,-3.5,-3.8,-6,-6.5,-7.8l-0.1,0c-1.8,-1.2,-3.6,-2.1,-5.4,-2.7l0.1,-0.1l5.5,0ZM153.7,304c0.5,-0.8,0.9,-1.7,1.3,-2.7l4.1,0c-2,0.8,-3.8,1.8,-5.4,2.7Z" class="g6_1" />
<path d="M300.3,402.5c-0.7,0,-1.3,0.4,-1.7,0.9l-145,0l-0.3,0.7c-2.4,6.3,-6.5,8.1,-7.3,8.4l-18.1,0l-7.3,-7.8l-48.1,0l-7.3,7.8l-6.4,0l-7.7,7.6l0,66.1l7.7,7.7l75.5,0l7.6,-7.7l0,-66.1l-5.5,-5.5l10,0l0.1,-0.1c0.2,0,2.8,-0.9,5.5,-4c2.4,-1.5,6.7,-4,10.9,-5l135.7,0c0.4,0.6,1,0.9,1.7,0.9c1.1,0,1.9,-0.8,1.9,-1.9c0,-1.1,-0.8,-2,-1.9,-2M127.2,415.4c0.9,0.3,1.9,0.7,2.9,1.2c0.5,0.2,0.9,0.5,1.4,0.7l-6,0ZM73.4,406.8l46.3,0l6.3,6.8l-18.1,20.8l-22.7,0L67.1,413.6Zm-5.8,10.5l-6,0c0.4,-0.2,0.9,-0.5,1.4,-0.7c1,-0.5,2,-0.9,2.9,-1.2ZM53.2,421l6.5,-6.4l5.5,0l0.1,0.1c-1.8,0.6,-3.7,1.5,-5.4,2.6l-0.2,0l0,0.1c-2.6,1.8,-5,4.3,-6.5,7.7Zm6.5,70.8l-6.5,-6.5l0,-4.1c1.5,3.5,3.9,6,6.5,7.7l0,0.1l0.2,0c1.8,1.3,3.8,2.1,5.7,2.8Zm9.4,0c-2.2,-0.5,-4.9,-1.3,-7.5,-2.8l69.9,0c-0.5,0.3,-0.9,0.5,-1.4,0.8c-2.1,1,-4.2,1.6,-6,2Zm70.7,-6.5l-6.4,6.5l-5.9,0c1.8,-0.7,3.8,-1.5,5.7,-2.8l0.1,0l0,-0.1c2.7,-1.7,5.1,-4.2,6.5,-7.7Zm0,-7c-0.9,4,-3.1,7.2,-6.5,9.6l-73.5,0c-2.9,-2.1,-5.5,-5.2,-6.6,-9.7l0,-50.1c1,-4,3.2,-7.2,6.6,-9.6l8.8,0l15.6,18l24.7,0l15.6,-18l8.8,0c3.4,2.4,5.6,5.6,6.5,9.6Zm0,-57.3l0,4.1c-1.4,-3.4,-3.8,-5.9,-6.5,-7.7l0,-0.1l-0.1,0c-1.8,-1.1,-3.6,-2,-5.4,-2.6l0.1,-0.1l5.5,0Zm13.9,-12.9c0.5,-0.8,0.9,-1.6,1.3,-2.6l4.1,0c-2,0.8,-3.8,1.7,-5.4,2.6Z" class="g6_1" />
<path d="M300.3,506.7c-0.7,0,-1.3,0.3,-1.7,0.9l-145,0l-0.3,0.7c-2.4,6.2,-6.5,8,-7.3,8.4l-18.1,0l-7.3,-7.8l-48.1,0l-7.3,7.8l-6.4,0l-7.7,7.6l0,66.1l7.7,7.6l75.5,0l7.6,-7.6l0,-66.1l-5.5,-5.5l10,0l0.1,-0.1c0.2,0,2.8,-0.9,5.5,-4c2.4,-1.6,6.7,-4,10.9,-5l135.7,0c0.4,0.5,1,0.9,1.7,0.9c1.1,0,1.9,-0.9,1.9,-2c0,-1.1,-0.8,-1.9,-1.9,-1.9M127.2,519.6c0.9,0.3,1.9,0.7,2.9,1.1c0.5,0.3,0.9,0.5,1.4,0.8l-6,0ZM73.4,511l46.3,0l6.3,6.7l-18.1,20.9l-22.7,0L67.1,517.7Zm-5.8,10.5l-6,0C62,521.2,62.5,521,63,520.7c1,-0.4,2,-0.8,2.9,-1.1Zm-14.4,3.7l6.5,-6.4l5.5,0l0.1,0.1c-1.8,0.6,-3.7,1.4,-5.4,2.6l-0.2,0l0,0.1c-2.6,1.7,-5,4.2,-6.5,7.7Zm6.5,70.7l-6.5,-6.4l0,-4.1c1.5,3.5,3.9,5.9,6.5,7.7l0,0.1l0.2,0c1.8,1.2,3.8,2.1,5.7,2.7Zm9.4,0c-2.2,-0.4,-4.9,-1.3,-7.5,-2.7l69.9,0c-0.5,0.2,-0.9,0.5,-1.4,0.7c-2.1,1,-4.2,1.7,-6,2Zm70.7,-6.4l-6.4,6.4l-5.9,0c1.8,-0.6,3.8,-1.5,5.7,-2.7l0.1,0l0,-0.1c2.7,-1.8,5.1,-4.2,6.5,-7.7Zm0,-7.1c-0.9,4,-3.1,7.2,-6.5,9.6l-73.5,0c-2.9,-2.1,-5.5,-5.1,-6.6,-9.6l0,-50.2c1,-4,3.2,-7.2,6.6,-9.6l8.8,0l15.6,18.1l24.7,0l15.6,-18.1l8.8,0c3.4,2.4,5.6,5.6,6.5,9.6Zm0,-57.2l0,4.1c-1.4,-3.5,-3.8,-6,-6.5,-7.7l0,-0.1l-0.1,0c-1.8,-1.2,-3.6,-2,-5.4,-2.6l0.1,-0.1l5.5,0Zm13.9,-12.9c0.5,-0.8,0.9,-1.6,1.3,-2.6l4.1,0c-2,0.8,-3.8,1.7,-5.4,2.6Z" class="g6_1" />
<path d="M161.6,620.2c0,0,-3.2,4,-5.4,5.4c2.2,1.4,5.4,5.4,5.4,5.4c0,0,3.1,-4,5.3,-5.4c-2.2,-1.4,-5.3,-5.4,-5.3,-5.4Z" class="g4_1" />
<path d="M161.6,632l-0.5,-0.6c0,0,-3.1,-4,-5.2,-5.3l-0.8,-0.5l0.8,-0.5c2.1,-1.4,5.2,-5.3,5.2,-5.3l0.5,-0.6l0.4,0.6c0.1,0,3.1,3.9,5.2,5.3l0.8,0.5l-0.8,0.5c-2.1,1.3,-5.1,5.3,-5.2,5.3Zm-4.3,-6.4c1.6,1.3,3.4,3.4,4.3,4.5c0.8,-1.1,2.6,-3.2,4.3,-4.5c-1.7,-1.3,-3.5,-3.4,-4.3,-4.5c-0.9,1.1,-2.7,3.2,-4.3,4.5Z" class="g6_1" />
<path d="M173.4,630.1l15.7,0" class="g11_1" />
<path d="M161.6,646c2.5,0,4.6,-2.1,4.6,-4.6c0,-2.5,-2.1,-4.5,-4.6,-4.5c-2.5,0,-4.5,2,-4.5,4.5c0,2.5,2,4.6,4.5,4.6Z" class="g4_1" />
<path d="M161.6,646.5c-2.8,0,-5.1,-2.3,-5.1,-5.1c0,-2.8,2.3,-5,5.1,-5c2.8,0,5.1,2.2,5.1,5c0,2.8,-2.3,5.1,-5.1,5.1m0,-9.1c-2.2,0,-4,1.8,-4,4c0,2.2,1.8,4,4,4c2.2,0,4,-1.8,4,-4c0,-2.2,-1.8,-4,-4,-4Z" class="g6_1" />
<path d="M173.4,644.6l15.7,0" class="g11_1" />
<path d="M161.6,660.5c2.5,0,4.6,-2,4.6,-4.6c0,-2.5,-2.1,-4.5,-4.6,-4.5c-2.5,0,-4.5,2,-4.5,4.5c0,2.6,2,4.6,4.5,4.6Z" class="g4_1" />
<path d="M161.6,661c-2.8,0,-5.1,-2.2,-5.1,-5.1c0,-2.8,2.3,-5,5.1,-5c2.8,0,5.1,2.2,5.1,5c0,2.9,-2.3,5.1,-5.1,5.1m0,-9c-2.2,0,-4,1.7,-4,3.9c0,2.3,1.8,4,4,4c2.2,0,4,-1.7,4,-4c0,-2.2,-1.8,-3.9,-4,-3.9Z" class="g6_1" />
<path d="M173.4,659.1l15.7,0" class="g11_1" />
<path d="M161.6,675c2.5,0,4.6,-2,4.6,-4.5c0,-2.5,-2.1,-4.6,-4.6,-4.6c-2.5,0,-4.5,2.1,-4.5,4.6c0,2.5,2,4.5,4.5,4.5Z" class="g4_1" />
<path d="M161.6,675.5c-2.8,0,-5.1,-2.2,-5.1,-5c0,-2.8,2.3,-5.1,5.1,-5.1c2.8,0,5.1,2.3,5.1,5.1c0,2.8,-2.3,5,-5.1,5m0,-9c-2.2,0,-4,1.8,-4,4c0,2.2,1.8,4,4,4c2.2,0,4,-1.8,4,-4c0,-2.2,-1.8,-4,-4,-4Z" class="g6_1" />
<path d="M173.4,673.6l15.7,0" class="g11_1" />
<path d="M161.6,689.5c2.5,0,4.6,-2,4.6,-4.5c0,-2.5,-2.1,-4.6,-4.6,-4.6c-2.5,0,-4.5,2.1,-4.5,4.6c0,2.5,2,4.5,4.5,4.5Z" class="g4_1" />
<path d="M161.6,690.1c-2.8,0,-5.1,-2.3,-5.1,-5.1c0,-2.8,2.3,-5.1,5.1,-5.1c2.8,0,5.1,2.3,5.1,5.1c0,2.8,-2.3,5.1,-5.1,5.1m0,-9.1c-2.2,0,-4,1.8,-4,4c0,2.2,1.8,4,4,4c2.2,0,4,-1.8,4,-4c0,-2.2,-1.8,-4,-4,-4Z" class="g6_1" />
<path d="M173.4,688.2l15.7,0" class="g11_1" />
<path d="M161.6,704c2.5,0,4.6,-2,4.6,-4.5c0,-2.5,-2.1,-4.5,-4.6,-4.5c-2.5,0,-4.5,2,-4.5,4.5c0,2.5,2,4.5,4.5,4.5Z" class="g4_1" />
<path d="M161.6,704.6c-2.8,0,-5.1,-2.3,-5.1,-5.1c0,-2.8,2.3,-5.1,5.1,-5.1c2.8,0,5.1,2.3,5.1,5.1c0,2.8,-2.3,5.1,-5.1,5.1m0,-9.1c-2.2,0,-4,1.8,-4,4c0,2.2,1.8,4,4,4c2.2,0,4,-1.8,4,-4c0,-2.2,-1.8,-4,-4,-4Z" class="g6_1" />
<path d="M173.4,702.7l15.7,0" class="g11_1" />
<path d="M161.6,724.3c0,0,-3.2,4,-5.4,5.5c2.2,1.4,5.4,5.4,5.4,5.4c0,0,3.1,-4,5.3,-5.4c-2.2,-1.5,-5.3,-5.5,-5.3,-5.5Z" class="g4_1" />
<path d="M161.6,736.2l-0.5,-0.6c0,-0.1,-3.1,-4,-5.2,-5.3l-0.8,-0.5l0.8,-0.6c2.1,-1.3,5.2,-5.2,5.2,-5.3l0.5,-0.6l0.4,0.6c0.1,0.1,3.1,4,5.2,5.3l0.8,0.6l-0.8,0.5c-2.1,1.3,-5.1,5.2,-5.2,5.3Zm-4.3,-6.4c1.6,1.2,3.4,3.4,4.3,4.4c0.8,-1,2.6,-3.2,4.3,-4.4c-1.7,-1.3,-3.5,-3.5,-4.3,-4.5c-0.9,1,-2.7,3.2,-4.3,4.5Z" class="g6_1" />
<path d="M173.4,734.3l15.7,0" class="g11_1" />
<path d="M161.6,750.1c2.5,0,4.6,-2,4.6,-4.5c0,-2.5,-2.1,-4.5,-4.6,-4.5c-2.5,0,-4.5,2,-4.5,4.5c0,2.5,2,4.5,4.5,4.5Z" class="g4_1" />
<path d="M161.6,750.7c-2.8,0,-5.1,-2.3,-5.1,-5.1c0,-2.8,2.3,-5.1,5.1,-5.1c2.8,0,5.1,2.3,5.1,5.1c0,2.8,-2.3,5.1,-5.1,5.1m0,-9.1c-2.2,0,-4,1.8,-4,4c0,2.2,1.8,4,4,4c2.2,0,4,-1.8,4,-4c0,-2.2,-1.8,-4,-4,-4Z" class="g6_1" />
<path d="M173.4,748.8l15.7,0" class="g11_1" />
<path d="M161.6,764.7c2.5,0,4.6,-2.1,4.6,-4.6c0,-2.5,-2.1,-4.5,-4.6,-4.5c-2.5,0,-4.5,2,-4.5,4.5c0,2.5,2,4.6,4.5,4.6Z" class="g4_1" />
<path d="M161.6,765.2c-2.8,0,-5.1,-2.3,-5.1,-5.1c0,-2.8,2.3,-5.1,5.1,-5.1c2.8,0,5.1,2.3,5.1,5.1c0,2.8,-2.3,5.1,-5.1,5.1m0,-9.1c-2.2,0,-4,1.8,-4,4c0,2.2,1.8,4,4,4c2.2,0,4,-1.8,4,-4c0,-2.2,-1.8,-4,-4,-4Z" class="g6_1" />
<path d="M173.4,763.3l15.7,0" class="g11_1" />
<path d="M161.6,779.2c2.5,0,4.6,-2.1,4.6,-4.6c0,-2.5,-2.1,-4.5,-4.6,-4.5c-2.5,0,-4.5,2,-4.5,4.5c0,2.5,2,4.6,4.5,4.6Z" class="g4_1" />
<path d="M161.6,779.7c-2.8,0,-5.1,-2.3,-5.1,-5.1c0,-2.8,2.3,-5.1,5.1,-5.1c2.8,0,5.1,2.3,5.1,5.1c0,2.8,-2.3,5.1,-5.1,5.1m0,-9.1c-2.2,0,-4,1.8,-4,4c0,2.2,1.8,4,4,4c2.2,0,4,-1.8,4,-4c0,-2.2,-1.8,-4,-4,-4Z" class="g6_1" />
<path d="M173.4,777.8l15.7,0" class="g11_1" />
<path d="M161.6,793.7c2.5,0,4.6,-2,4.6,-4.6c0,-2.5,-2.1,-4.5,-4.6,-4.5c-2.5,0,-4.5,2,-4.5,4.5c0,2.6,2,4.6,4.5,4.6Z" class="g4_1" />
<path d="M161.6,794.2c-2.8,0,-5.1,-2.2,-5.1,-5.1c0,-2.8,2.3,-5,5.1,-5c2.8,0,5.1,2.2,5.1,5c0,2.9,-2.3,5.1,-5.1,5.1m0,-9c-2.2,0,-4,1.7,-4,3.9c0,2.2,1.8,4,4,4c2.2,0,4,-1.8,4,-4c0,-2.2,-1.8,-3.9,-4,-3.9Z" class="g6_1" />
<path d="M173.4,792.3l15.7,0" class="g11_1" />
<path d="M161.6,808.2c2.5,0,4.6,-2,4.6,-4.5c0,-2.5,-2.1,-4.6,-4.6,-4.6c-2.5,0,-4.5,2.1,-4.5,4.6c0,2.5,2,4.5,4.5,4.5Z" class="g4_1" />
<path d="M161.6,808.7c-2.8,0,-5.1,-2.2,-5.1,-5c0,-2.8,2.3,-5.1,5.1,-5.1c2.8,0,5.1,2.3,5.1,5.1c0,2.8,-2.3,5,-5.1,5m0,-9c-2.2,0,-4,1.8,-4,4c0,2.2,1.8,4,4,4c2.2,0,4,-1.8,4,-4c0,-2.2,-1.8,-4,-4,-4Z" class="g6_1" />
<path d="M173.4,806.8l15.7,0" class="g11_1" />
<path d="M161.6,828.5c0,0,-3.2,4,-5.4,5.4c2.2,1.4,5.4,5.5,5.4,5.5c0,0,3.1,-4.1,5.3,-5.5c-2.2,-1.4,-5.3,-5.4,-5.3,-5.4Z" class="g4_1" />
<path d="M161.6,840.3l-0.5,-0.6c0,0,-3.1,-3.9,-5.2,-5.3l-0.8,-0.5l0.8,-0.5c2.1,-1.3,5.2,-5.3,5.2,-5.3l0.5,-0.6l0.4,0.6c0.1,0,3.1,4,5.2,5.3l0.8,0.5l-0.8,0.5c-2.1,1.4,-5.1,5.3,-5.2,5.3Zm-4.3,-6.4c1.6,1.3,3.4,3.5,4.3,4.5c0.8,-1,2.6,-3.2,4.3,-4.5c-1.7,-1.3,-3.5,-3.4,-4.3,-4.4c-0.9,1,-2.7,3.1,-4.3,4.4Z" class="g6_1" />
<path d="M173.4,838.4l15.7,0" class="g11_1" />
<path d="M161.6,854.3c2.5,0,4.6,-2,4.6,-4.5c0,-2.5,-2.1,-4.6,-4.6,-4.6c-2.5,0,-4.5,2.1,-4.5,4.6c0,2.5,2,4.5,4.5,4.5Z" class="g4_1" />
<path d="M161.6,854.9c-2.8,0,-5.1,-2.3,-5.1,-5.1c0,-2.8,2.3,-5.1,5.1,-5.1c2.8,0,5.1,2.3,5.1,5.1c0,2.8,-2.3,5.1,-5.1,5.1m0,-9.1c-2.2,0,-4,1.8,-4,4c0,2.2,1.8,4,4,4c2.2,0,4,-1.8,4,-4c0,-2.2,-1.8,-4,-4,-4Z" class="g6_1" />
<path d="M173.4,853l15.7,0" class="g11_1" />
<path d="M161.6,868.8c2.5,0,4.6,-2,4.6,-4.5c0,-2.5,-2.1,-4.5,-4.6,-4.5c-2.5,0,-4.5,2,-4.5,4.5c0,2.5,2,4.5,4.5,4.5Z" class="g4_1" />
<path d="M161.6,869.4c-2.8,0,-5.1,-2.3,-5.1,-5.1c0,-2.8,2.3,-5.1,5.1,-5.1c2.8,0,5.1,2.3,5.1,5.1c0,2.8,-2.3,5.1,-5.1,5.1m0,-9.1c-2.2,0,-4,1.8,-4,4c0,2.2,1.8,4,4,4c2.2,0,4,-1.8,4,-4c0,-2.2,-1.8,-4,-4,-4Z" class="g6_1" />
<path d="M173.4,867.5l15.7,0" class="g11_1" />
<path d="M161.6,883.3c2.5,0,4.6,-2,4.6,-4.5c0,-2.5,-2.1,-4.5,-4.6,-4.5c-2.5,0,-4.5,2,-4.5,4.5c0,2.5,2,4.5,4.5,4.5Z" class="g4_1" />
<path d="M161.6,883.9c-2.8,0,-5.1,-2.3,-5.1,-5.1c0,-2.8,2.3,-5.1,5.1,-5.1c2.8,0,5.1,2.3,5.1,5.1c0,2.8,-2.3,5.1,-5.1,5.1m0,-9.1c-2.2,0,-4,1.8,-4,4c0,2.2,1.8,4,4,4c2.2,0,4,-1.8,4,-4c0,-2.2,-1.8,-4,-4,-4Z" class="g6_1" />
<path d="M173.4,882l15.7,0" class="g11_1" />
<path d="M161.6,897.9c2.5,0,4.6,-2.1,4.6,-4.6c0,-2.5,-2.1,-4.5,-4.6,-4.5c-2.5,0,-4.5,2,-4.5,4.5c0,2.5,2,4.6,4.5,4.6Z" class="g4_1" />
<path d="M161.6,898.4c-2.8,0,-5.1,-2.3,-5.1,-5.1c0,-2.8,2.3,-5.1,5.1,-5.1c2.8,0,5.1,2.3,5.1,5.1c0,2.8,-2.3,5.1,-5.1,5.1m0,-9.1c-2.2,0,-4,1.8,-4,4c0,2.2,1.8,4,4,4c2.2,0,4,-1.8,4,-4c0,-2.2,-1.8,-4,-4,-4Z" class="g6_1" />
<path d="M173.4,896.5l15.7,0" class="g11_1" />
<path d="M161.6,307.6c0,0,-3.2,4.1,-5.4,5.5c2.2,1.4,5.4,5.4,5.4,5.4c0,0,3.1,-4,5.3,-5.4c-2.2,-1.4,-5.3,-5.5,-5.3,-5.5Z" class="g4_1" />
<path d="M161.6,319.5l-0.5,-0.6c0,0,-3.1,-4,-5.2,-5.3l-0.8,-0.5l0.8,-0.5c2.1,-1.4,5.2,-5.3,5.2,-5.3l0.5,-0.6l0.4,0.6c0.1,0,3.1,3.9,5.2,5.3l0.8,0.5l-0.8,0.5c-2.1,1.3,-5.1,5.3,-5.2,5.3Zm-4.3,-6.4c1.6,1.3,3.4,3.4,4.3,4.5c0.8,-1.1,2.6,-3.2,4.3,-4.5c-1.7,-1.3,-3.5,-3.5,-4.3,-4.5c-0.9,1,-2.7,3.2,-4.3,4.5Z" class="g6_1" />
<path d="M173.4,317.6l15.7,0" class="g11_1" />
<path d="M161.6,333.5c2.5,0,4.6,-2.1,4.6,-4.6c0,-2.5,-2.1,-4.5,-4.6,-4.5c-2.5,0,-4.5,2,-4.5,4.5c0,2.5,2,4.6,4.5,4.6Z" class="g4_1" />
<path d="M161.6,334c-2.8,0,-5.1,-2.3,-5.1,-5.1c0,-2.8,2.3,-5.1,5.1,-5.1c2.8,0,5.1,2.3,5.1,5.1c0,2.8,-2.3,5.1,-5.1,5.1m0,-9.1c-2.2,0,-4,1.8,-4,4c0,2.2,1.8,4,4,4c2.2,0,4,-1.8,4,-4c0,-2.2,-1.8,-4,-4,-4Z" class="g6_1" />
<path d="M173.4,332.1l15.7,0" class="g11_1" />
<path d="M161.6,411.8c0,0,-3.2,4,-5.4,5.4c2.2,1.5,5.4,5.5,5.4,5.5c0,0,3.1,-4,5.3,-5.5c-2.2,-1.4,-5.3,-5.4,-5.3,-5.4Z" class="g4_1" />
<path d="M161.6,423.7l-0.5,-0.6c0,-0.1,-3.1,-4,-5.2,-5.3l-0.8,-0.6l0.8,-0.5c2.1,-1.3,5.2,-5.2,5.2,-5.3l0.5,-0.6l0.4,0.6c0.1,0.1,3.1,4,5.2,5.3l0.8,0.5l-0.8,0.6c-2.1,1.3,-5.1,5.2,-5.2,5.3Zm-4.3,-6.5c1.6,1.3,3.4,3.5,4.3,4.5c0.8,-1,2.6,-3.2,4.3,-4.5c-1.7,-1.2,-3.5,-3.4,-4.3,-4.4c-0.9,1,-2.7,3.2,-4.3,4.4Z" class="g6_1" />
<path d="M173.4,421.8l15.7,0" class="g11_1" />
<path d="M161.6,437.6c2.5,0,4.6,-2,4.6,-4.5c0,-2.5,-2.1,-4.5,-4.6,-4.5c-2.5,0,-4.5,2,-4.5,4.5c0,2.5,2,4.5,4.5,4.5Z" class="g4_1" />
<path d="M161.6,438.2c-2.8,0,-5.1,-2.3,-5.1,-5.1c0,-2.8,2.3,-5.1,5.1,-5.1c2.8,0,5.1,2.3,5.1,5.1c0,2.8,-2.3,5.1,-5.1,5.1m0,-9.1c-2.2,0,-4,1.8,-4,4c0,2.2,1.8,4,4,4c2.2,0,4,-1.8,4,-4c0,-2.2,-1.8,-4,-4,-4Z" class="g6_1" />
<path d="M173.4,436.3l15.7,0" class="g11_1" />
<path d="M161.6,452.1c2.5,0,4.6,-2,4.6,-4.5c0,-2.5,-2.1,-4.5,-4.6,-4.5c-2.5,0,-4.5,2,-4.5,4.5c0,2.5,2,4.5,4.5,4.5Z" class="g4_1" />
<path d="M161.6,452.7c-2.8,0,-5.1,-2.3,-5.1,-5.1c0,-2.8,2.3,-5.1,5.1,-5.1c2.8,0,5.1,2.3,5.1,5.1c0,2.8,-2.3,5.1,-5.1,5.1m0,-9.1c-2.2,0,-4,1.8,-4,4c0,2.2,1.8,4,4,4c2.2,0,4,-1.8,4,-4c0,-2.2,-1.8,-4,-4,-4Z" class="g6_1" />
<path d="M173.4,450.8l15.7,0" class="g11_1" />
<path d="M161.6,466.7c2.5,0,4.6,-2.1,4.6,-4.6c0,-2.5,-2.1,-4.5,-4.6,-4.5c-2.5,0,-4.5,2,-4.5,4.5c0,2.5,2,4.6,4.5,4.6Z" class="g4_1" />
<path d="M161.6,467.2c-2.8,0,-5.1,-2.3,-5.1,-5.1c0,-2.8,2.3,-5.1,5.1,-5.1c2.8,0,5.1,2.3,5.1,5.1c0,2.8,-2.3,5.1,-5.1,5.1m0,-9.1c-2.2,0,-4,1.8,-4,4c0,2.2,1.8,4,4,4c2.2,0,4,-1.8,4,-4c0,-2.2,-1.8,-4,-4,-4Z" class="g6_1" />
<path d="M173.4,465.3l15.7,0" class="g11_1" />
<path d="M161.6,516c0,0,-3.2,4,-5.4,5.4c2.2,1.4,5.4,5.5,5.4,5.5c0,0,3.1,-4.1,5.3,-5.5C164.7,520,161.6,516,161.6,516Z" class="g4_1" />
<path d="M161.6,527.8l-0.5,-0.6c0,0,-3.1,-3.9,-5.2,-5.3l-0.8,-0.5l0.8,-0.5c2.1,-1.3,5.2,-5.3,5.2,-5.3l0.5,-0.6l0.4,0.6c0.1,0,3.1,4,5.2,5.3l0.8,0.5l-0.8,0.5c-2.1,1.4,-5.1,5.3,-5.2,5.3Zm-4.3,-6.4c1.6,1.3,3.4,3.5,4.3,4.5c0.8,-1,2.6,-3.2,4.3,-4.5c-1.7,-1.3,-3.5,-3.4,-4.3,-4.5c-0.9,1.1,-2.7,3.2,-4.3,4.5Z" class="g6_1" />
<path d="M173.4,525.9l15.7,0" class="g11_1" />
<path d="M574.8,492.2c-3.7,0,-6.7,2.8,-7.1,6.4l-5.5,0c-0.3,-3.6,-3.4,-6.4,-7.1,-6.4c-3.7,0,-6.7,2.8,-7,6.4l-5.5,0c-0.4,-3.6,-3.4,-6.4,-7.1,-6.4c-4,0,-7.2,3.2,-7.2,7.1c0,4,3.2,7.2,7.2,7.2c3.1,0,5.7,-2,6.7,-4.8l6.2,0c1,2.8,3.6,4.8,6.7,4.8c3.1,0,5.7,-2,6.7,-4.8l6.3,0c1,2.8,3.6,4.8,6.7,4.8c3.9,0,7.1,-3.2,7.1,-7.2c0,-3.9,-3.2,-7.1,-7.1,-7.1m-39.3,12.9c-3.2,0,-5.8,-2.6,-5.8,-5.8c0,-3.2,2.6,-5.8,5.8,-5.8c3.2,0,5.8,2.6,5.8,5.8c0,3.2,-2.6,5.8,-5.8,5.8m6.9,-4.1c0.1,-0.3,0.1,-0.6,0.2,-1l5.5,0c0,0.4,0,0.7,0.1,1Zm12.7,4.1c-3.1,0,-5.7,-2.6,-5.7,-5.8c0,-3.2,2.6,-5.8,5.7,-5.8c3.2,0,5.8,2.6,5.8,5.8c0,3.2,-2.6,5.8,-5.8,5.8m7,-4.1c0,-0.3,0.1,-0.6,0.1,-1l5.5,0c0,0.4,0.1,0.7,0.2,1Zm12.7,4.1c-3.2,0,-5.8,-2.6,-5.8,-5.8c0,-3.2,2.6,-5.8,5.8,-5.8c3.2,0,5.8,2.6,5.8,5.8c0,3.2,-2.6,5.8,-5.8,5.8Z" class="g6_1" />
<path d="M574.8,515.1c-3.7,0,-6.7,2.8,-7.1,6.4l-5.5,0c-0.3,-3.6,-3.4,-6.4,-7.1,-6.4c-3.7,0,-6.7,2.8,-7,6.4l-5.5,0c-0.4,-3.6,-3.4,-6.4,-7.1,-6.4c-4,0,-7.2,3.2,-7.2,7.1c0,4,3.2,7.2,7.2,7.2c3.1,0,5.7,-2,6.7,-4.8l6.2,0c1,2.8,3.6,4.8,6.7,4.8c3.1,0,5.7,-2,6.7,-4.8l6.3,0c1,2.8,3.6,4.8,6.7,4.8c3.9,0,7.1,-3.2,7.1,-7.2c0,-3.9,-3.2,-7.1,-7.1,-7.1M535.5,528c-3.2,0,-5.8,-2.6,-5.8,-5.8c0,-3.2,2.6,-5.8,5.8,-5.8c3.2,0,5.8,2.6,5.8,5.8c0,3.2,-2.6,5.8,-5.8,5.8m6.9,-4.1c0.1,-0.3,0.1,-0.6,0.2,-1l5.5,0c0,0.4,0,0.7,0.1,1Zm12.7,4.1c-3.1,0,-5.7,-2.6,-5.7,-5.8c0,-3.2,2.6,-5.8,5.7,-5.8c3.2,0,5.8,2.6,5.8,5.8c0,3.2,-2.6,5.8,-5.8,5.8m7,-4.1c0,-0.3,0.1,-0.6,0.1,-1l5.5,0c0,0.4,0.1,0.7,0.2,1Zm12.7,4.1c-3.2,0,-5.8,-2.6,-5.8,-5.8c0,-3.2,2.6,-5.8,5.8,-5.8c3.2,0,5.8,2.6,5.8,5.8c0,3.2,-2.6,5.8,-5.8,5.8Z" class="g6_1" />
<path d="M412.5,97.5l455.4,0" class="g12_1" />
<path d="M412.5,137.4l455.4,0" class="g12_1" />
<path d="M377.2,501.2l73,0" class="g12_1" />
<path d="M459.3,318.5l122.1,0" class="g12_1" />
<path d="M387.1,52.1c0.6,0,0.6,0.9,0,0.9l-0.8,0l0,-0.9Zm0.5,1.5c1.4,-0.3,1.1,-2.4,-0.5,-2.4l-1.8,0l0,3.8l1,0l0,-1.2l0.3,0l0.9,1.2l1.1,0l0,-0.2ZM386.7,56c1.8,0,2.8,-1.3,2.8,-2.9c0,-1.7,-1,-3,-2.8,-3c-1.7,0,-2.7,1.3,-2.7,3c0,1.6,1,2.9,2.7,2.9m3.7,-2.9c0,2,-1.3,3.7,-3.6,3.7c-2.4,0,-3.7,-1.7,-3.7,-3.7c0,-2,1.3,-3.7,3.7,-3.7c2.3,0,3.6,1.7,3.6,3.7Z" class="g6_1" />
<g clip-path="url(#c0_1)">
<path d="M276.2,50.2c-0.1,-0.4,0,-0.8,0.1,-1.1l0.5,-1.6l0.6,1.5c0.2,0.5,0.6,0.8,1.1,1.1c-0.1,-0.8,0.1,-1.6,0.3,-2.2c0,-1.2,0.8,-2,1.8,-2c1.7,0,2.1,2,1.4,3.5c0.3,0.5,0.9,1,1.4,1.5c0.1,0.1,0.3,0.3,0.5,0.4c0,0.1,0,0.1,0.1,0.2c0.7,-1,1.3,-2.4,1.3,-3.5c0,-2.2,-1.5,-4.2,-4.4,-4.3c-1.9,-0.1,-3.1,0.4,-4.1,1.4c-0.4,0.4,-1.3,1.5,-1.2,3.5c0.1,0.8,0.4,1.3,0.6,1.6m7.9,10.1c-0.7,1.1,-2.1,2.6,-3.6,2.6c-2.6,0,-3.9,-3.7,-1,-6.8c-0.1,0,-0.3,-0.1,-0.4,-0.1c-0.2,0,-0.5,0.1,-0.6,0.2l-1.3,1.1l0.3,-1.8c0.1,0,0.1,-0.1,0.1,-0.2c-0.6,0.4,-1.3,0.8,-1.5,1.1l-1.2,1.3L275,55.9l0.1,-0.4c0.1,-0.3,0.1,-0.7,0.1,-0.8c0,0,0,-0.1,-0.1,-0.1c-0.5,0.4,-2,1.8,-2.2,3.7c0,0,0.3,-0.4,0.5,-0.5c0.2,-0.1,0.4,0,0.2,0.5c-0.1,0.2,-1.5,4.1,1.3,6.9c0,0,-0.3,-0.8,-0.1,-1.1c0.1,-0.1,0.2,-0.1,0.4,0.1c0.1,0.2,0.2,0.3,0.4,0.5c0.2,0.2,0.5,0.5,0.8,0.7c0.8,0.6,2,1.1,3.3,1.1c3.5,0,5.4,-2.4,6.4,-4.5c0,0,-0.1,-0.1,-0.1,-0.1c-0.6,-0.5,-1.3,-1.1,-1.9,-1.6m7.9,-7c-2.6,0.2,-4.8,2.4,-6,4c0.2,0,0.4,0.1,0.6,0.3c0.3,0.2,0.6,0.5,1,0.8c0.3,-0.7,1,-2.1,2.1,-3.3c1,-1.1,2.7,-1.2,3.6,-0.6c0.6,-0.5,2.6,-1,3.6,-0.7c-0.6,-0.7,-2,-1.6,-3.5,-1.6c-1.2,0,-1.9,0.6,-2.1,0.3c-0.2,-0.3,0.8,-0.8,0.8,-0.8c-1.4,0,-2.5,1.7,-2.9,1.5c-0.3,-0.1,0.4,-0.9,0.4,-0.9c-1.4,0.7,-2.5,2.4,-2.7,3.4c1.2,-1.5,3.6,-2.6,5.1,-2.4m54.1,7.2c-0.1,-0.1,-0.2,-0.2,-0.2,-0.7l0,-3.3c0,-0.5,0.1,-0.6,0.1,-0.8c0.2,-0.1,0.3,-0.4,0.3,-0.4l0.1,-0.1l-0.1,0c0,0,-0.2,-0.1,-0.5,-0.2c-0.1,0,-5.2,0,-5.2,0l0.3,0.2c0,0,0.7,0.5,1.1,0.7c0.3,0.2,0.5,0.4,0.5,1.2l0,1.7C342.1,59,341.7,59,341.2,59c-2,0,-3.1,-1.1,-3.1,-3.3c0,-2.1,1.2,-3.4,3.2,-3.4c1.2,0,2.6,0.3,4.2,1.5l-0.4,-3.6l0,-0.2l-0.3,-0.1l-0.2,0c-1.1,-0.3,-1.5,-0.4,-2.2,-0.4c-0.3,-0.1,-0.6,-0.1,-1,-0.1c0,0,-0.2,0,-0.2,0c-3.8,0,-6.6,2.7,-6.6,6.3c0,3.7,2.8,6.3,6.6,6.3c0.7,0,2,-0.1,2.8,-0.3c0.1,0,0.2,-0.1,0.3,-0.1c0.1,0,0.1,0,0.1,0c0.5,-0.1,0.9,-0.2,1.4,-0.4L346.4,61l-0.1,-0.1c0,0,-0.1,-0.2,-0.2,-0.4m28,-10.9l-6.9,0l0.2,0.1c0,0,0.7,0.4,1.1,0.7c0.4,0.3,0.5,0.4,0.5,1.2l0,3l-5.1,-5l-4,0l0.2,0.1c0,0,0.6,0.4,1,0.7c0.3,0.3,0.5,0.5,0.5,1.3l0,8c0,0.8,-0.1,1,-0.5,1.2c-0.4,0.2,-1.1,0.7,-1.2,0.7l-0.2,0.1l6.9,0l-0.3,-0.1c0,0,-0.8,-0.5,-1.1,-0.7c-0.4,-0.2,-0.5,-0.4,-0.5,-1.2l0,-4.8l7.4,7.2l0,-10.5c0,-0.8,0.1,-0.9,0.5,-1.2c0.4,-0.3,1.1,-0.7,1.2,-0.7Zm-44.4,7.1l-1.1,-3l-1.2,3ZM318.3,53c0,-0.6,-0.4,-1,-1.5,-1l-0.4,0l0,2.8c0.1,0,0.3,0,0.4,0c0.7,0,1.5,-0.1,1.5,-1.8m17,7.9l1,0.8l-6.3,0c0,0,0.5,-0.5,0.7,-0.7c0.2,-0.2,0.4,-0.5,0.2,-0.8c0,-0.1,-0.1,-0.3,-0.2,-0.6l-4.4,0c-0.1,0.3,-0.2,0.5,-0.2,0.6c-0.2,0.4,-0.2,0.5,0.1,0.8c0.3,0.2,0.9,0.7,0.9,0.7l-6.7,0l-3,-3.7c-0.4,-0.4,-0.6,-0.7,-0.8,-0.8c-0.1,0,-0.1,0,-0.2,-0.1l0,2.6c0,0.8,0.1,0.9,0.5,1.2c0.3,0.3,1.4,0.8,1.4,0.8l-7.1,0c0,0,1.1,-0.6,1.4,-0.8c0.3,-0.2,0.5,-0.4,0.5,-1.2l0,-8.1c0,-0.7,-0.1,-1,-0.5,-1.2c-0.3,-0.2,-1.1,-0.7,-1.1,-0.7l-0.2,-0.1c0,0,5.5,0,5.8,0c1.1,0,1.5,0,2.2,0.2c1.5,0.5,2.4,1.7,2.4,3.3c0,0.7,-0.2,1.4,-0.6,1.9c-0.3,0.4,-0.7,0.8,-1.1,1c1.2,1.8,2.2,3,2.9,3.7c0,-0.1,3.7,-8.9,3.7,-8.9c0,0,0,-0.1,0,-0.1c0,-0.1,0,-0.2,-0.2,-0.3l-0.9,-0.8l4.8,0c0,0,4,10.1,4.1,10.2c0.1,0.2,0.1,0.3,0.2,0.4c0.2,0.3,0.2,0.4,0.7,0.7m21.5,-5.3c0,-1.9,-1.3,-3.2,-3.2,-3.2c-1.9,0,-3.1,1.3,-3.1,3.3c0,2,1.3,3.3,3.2,3.3c1.8,0,3.1,-1.4,3.1,-3.4m3.5,0c0,3.6,-2.9,6.4,-6.7,6.4C349.8,62,347,59.3,347,55.7c0,-3.6,2.8,-6.3,6.6,-6.3c3.8,0,6.7,2.7,6.7,6.2m18.8,-1.7c-0.2,0,-0.3,0,-0.5,-0.1c-1.2,-0.3,-2,-0.5,-2,-1c0,-0.1,0.1,-0.3,0.2,-0.4c0.2,-0.2,0.6,-0.3,1.2,-0.3c0.1,0,0.2,0,0.3,0c0,0,0.1,0,0.1,0c1,0.1,2.3,0.6,3.6,1.4l-0.2,-3.6l-0.3,0l0,-0.1c0,0,-0.2,0,-0.6,-0.1c-0.2,-0.1,-1.5,-0.3,-2.2,-0.4c-0.2,0,-0.5,0,-0.7,0c-2.7,0,-4.3,1.3,-4.5,3.6c-0.1,1.2,0.5,2.3,1.5,2.9c0.9,0.6,2.2,1,3.1,1.2l0.2,0.1c0.6,0.2,1.3,0.6,1.2,1.3c-0.1,0.3,-0.2,0.7,-1.3,0.7c-0.2,0,-0.3,0,-0.5,0C376.9,59,376,58.6,375,57.8c0,0,-0.1,-0.1,-0.1,-0.1l-0.6,-0.4l-0.6,-0.5l0.2,4.5l0.2,0.1l0.1,0c0,0,0.1,0.1,0.5,0.2c0.5,0.1,1.8,0.3,2.5,0.4c0.2,0,0.4,0,0.7,0c2.9,0,4.9,-1.5,4.9,-3.8c0.1,-2.2,-1.2,-3.6,-3.7,-4.3m-70.7,1.8c0,-2,-1,-3.2,-2.8,-3.2l-1.4,0l0,6.3l1.4,0c1.8,0,2.8,-1.2,2.8,-3.1m3.5,-0.1c0,1.4,-0.4,2.8,-1.2,3.8c-0.4,0.5,-0.8,0.9,-1.3,1.2c-1.2,0.8,-2.4,1.1,-4.1,1.1l-6.4,0l0.3,-0.1c0,0,0.8,-0.5,1.1,-0.7c0.4,-0.2,0.5,-0.4,0.5,-1.2l0,-7c0,-0.8,-0.2,-1,-0.5,-1.2C298.7,50.4,298.6,49,298.6,49l0,-0.2l0.1,0.1c0,0,0.6,0.3,1.1,0.5c0.7,0.1,1.6,0.2,3.6,0.2l2.4,0c1.2,0,2.1,0.2,3,0.7c2,1,3.1,3,3.1,5.3M221.3,61c0,0,-0.2,-0.2,-0.3,-0.4c-0.1,-0.1,-0.2,-0.2,-0.2,-0.7l0,-3.3c0,-0.5,0.1,-0.6,0.2,-0.8c0.1,-0.1,0.3,-0.4,0.3,-0.4l-0.1,-0.1c0,0,-0.2,-0.1,-0.5,-0.1c0,0,-5.1,0,-5.1,0l0.2,0.1c0,0,0.8,0.5,1.1,0.7c0.4,0.2,0.5,0.4,0.5,1.2l0,1.8c-0.4,0.1,-0.8,0.1,-1.2,0.1C214.1,59.1,213,58,213,55.8c0,-2.1,1.2,-3.4,3.2,-3.4c1.3,0,2.6,0.3,4.2,1.6l0,-0.1L220,50.3l0,-0.2L219.8,50l-0.3,0c-1.1,-0.3,-1.5,-0.3,-2.1,-0.4c-0.4,-0.1,-0.6,-0.1,-1.1,-0.1c0,0,-0.1,0,-0.2,0c-3.8,0,-6.6,2.7,-6.6,6.3c0,3.7,2.8,6.3,6.6,6.3c0.7,0,2,-0.1,2.8,-0.3c0.2,0,0.2,-0.1,0.4,-0.1c0.5,-0.1,1,-0.2,1.4,-0.4l0.6,-0.2ZM259.7,49.6l-6.9,0l0.3,0.1c0,0,0.7,0.4,1.1,0.7c0.3,0.3,0.5,0.4,0.5,1.2l0,3l-5.1,-5l-4.1,0l0.3,0.1c0,0,0.6,0.4,1,0.7c0.3,0.3,0.5,0.5,0.5,1.3l0,8c0,0.8,-0.2,1,-0.5,1.2c-0.4,0.2,-1.2,0.7,-1.2,0.7l-0.2,0.1l6.9,0L252,61.6c0,0,-0.8,-0.5,-1.1,-0.7c-0.4,-0.2,-0.5,-0.4,-0.5,-1.2l0,-4.8l7.4,7.2l0,-10.5c0,-0.8,0.1,-0.9,0.5,-1.2c0.4,-0.3,1.1,-0.7,1.1,-0.7ZM210.4,49.6l-6.9,0l0.2,0.1c0,0,0.7,0.4,1.1,0.7c0.4,0.3,0.5,0.4,0.5,1.2l0,3l-5.1,-5l-8,0c-0.2,0,-0.5,0.1,-0.5,0.1l-0.1,0.1l0.1,0c0,0,0.2,0.3,0.3,0.5c0,0.1,0.1,0.2,0.1,0.5c0,0,0,6.2,0,6.2l0,0.1c0,1.3,-0.6,1.9,-1.8,1.9c-1.3,0,-1.9,-0.7,-1.9,-2l0,-6.2c0,-0.3,0,-0.4,0.1,-0.5c0.1,-0.2,0.3,-0.5,0.3,-0.5l0,-0.1c0,0,-0.3,-0.1,-0.5,-0.1l-5.2,0l0.3,0.1c0,0,0.7,0.4,1.1,0.7c0.3,0.2,0.5,0.4,0.5,1.2l0,5c0,1.1,0.1,2,0.4,2.6c0.1,0.4,0.4,0.8,0.8,1.2c1.1,1,2.4,1.5,4.1,1.5c2.3,0,4.1,-1,4.8,-2.8c0.3,-0.6,0.4,-1.2,0.4,-2.4l0,-5.1c0,-0.8,0.1,-1,0.5,-1.2c0.2,-0.1,0.5,-0.3,0.7,-0.5c0.2,0.2,0.5,0.4,0.7,0.5c0.3,0.3,0.5,0.5,0.5,1.3l0,8c0,0.8,-0.1,1,-0.5,1.2c-0.4,0.2,-1.1,0.7,-1.1,0.7L196,61.7l6.9,0l-0.3,-0.1c0,0,-0.7,-0.5,-1.1,-0.7C201.1,60.7,201,60.5,201,59.7l0,-4.8l7.4,7.2l0,-10.5c0,-0.8,0.1,-0.9,0.5,-1.2c0.4,-0.3,1.2,-0.7,1.2,-0.7Zm18.9,9.2l-2.7,0l0,-1.8c0,0,2.5,0,2.6,0c0.3,0,0.7,0,0.9,0.1c0.2,0.1,0.4,0.4,0.4,0.4l0.1,0.1l0,-3.9l-0.1,0.1c0,0,-0.2,0.1,-0.3,0.2c-0.1,0,-0.2,0,-0.8,0l-2.8,0l0,-1.5l2.8,0c0.8,0,0.9,0.1,1.4,0.4l0.7,0.5l-0.4,-3.8l-9.8,0l0.3,0.1c0,0,0.7,0.4,1.1,0.7c0.3,0.3,0.5,0.4,0.5,1.2l0,8.1c0,0.8,-0.1,1,-0.5,1.2c-0.4,0.2,-1.2,0.7,-1.2,0.7l-0.2,0.1l10.1,0l0.9,-4c0,0,-0.8,0.6,-1.1,0.7c-0.4,0.3,-0.8,0.4,-1.9,0.4m35.5,-4.9c-0.2,0,-0.4,0,-0.5,-0.1l-0.1,0c-1.1,-0.3,-1.9,-0.5,-1.9,-1c0,-0.1,0.1,-0.3,0.2,-0.4c0.2,-0.2,0.6,-0.3,1.2,-0.3c0.1,0,0.2,0,0.3,0l0.1,0c1,0.1,2.3,0.6,3.5,1.4l-0.2,-3.6l-0.2,0l0,-0.1c-0.1,0,-0.2,0,-0.6,-0.1c-0.2,-0.1,-1.5,-0.3,-2.2,-0.4c-0.3,0,-0.5,0,-0.7,0c-2.7,0,-4.3,1.3,-4.5,3.6c-0.1,1.2,0.5,2.3,1.5,2.9c0.8,0.6,2.1,1,3.1,1.2l0.2,0.1c0.6,0.2,1.3,0.6,1.2,1.3c-0.1,0.3,-0.2,0.7,-1.3,0.7c-0.2,0,-0.4,0,-0.6,0c-0.7,-0.1,-1.6,-0.5,-2.6,-1.3c-0.1,0,-0.1,-0.1,-0.1,-0.1L260,57.3l-0.7,-0.5l0.3,4.5l0.2,0.1l0.1,0c0,0,0.1,0.1,0.5,0.2c0.4,0.1,1.8,0.3,2.5,0.4c0.2,0,0.4,0,0.6,0c3,0,5,-1.5,5,-3.8c0.1,-2.2,-1.2,-3.6,-3.7,-4.3m-84.5,1.8c0,-2,-1.1,-3.2,-2.9,-3.2l-1.3,0l0,6.3l1.3,0c1.8,0,2.9,-1.2,2.9,-3.1m3.5,-0.1c0,1.4,-0.5,2.8,-1.3,3.8c-0.3,0.5,-0.8,0.9,-1.3,1.2c-1.2,0.8,-2.3,1.1,-4.1,1.1l-6.3,0L171,61.6c0,0,0.8,-0.5,1.2,-0.7c0.3,-0.2,0.5,-0.4,0.5,-1.2l0,-7c0,-0.8,-0.2,-1,-0.5,-1.2C170.6,50.4,170.5,49,170.5,49l-0.1,-0.2l0.2,0.1c0,0,0.5,0.3,1.1,0.5c0.7,0.1,1.6,0.2,3.5,0.2l2.5,0c1.2,0,2.1,0.2,3,0.7c1.9,1,3.1,3,3.1,5.3m58.7,0c0,-2,-1.3,-3.2,-3.3,-3.2c-1.8,0,-3,1.2,-3,3.3c0,2,1.2,3.3,3.1,3.3c1.9,0,3.2,-1.4,3.2,-3.4m3.5,0c0,3.6,-2.9,6.3,-6.7,6.3c-3.8,0,-6.6,-2.6,-6.6,-6.2c0,-3.6,2.8,-6.3,6.6,-6.3c3.8,0,6.7,2.7,6.7,6.2m37.6,-1.2L283.5,54c0,0,-0.3,-0.9,-1.3,-1.3l-0.5,-0.2l0.1,0.6c0.2,0.4,0.4,1.3,1.4,1.3Zm-7.2,-2.2c0.1,-0.5,-0.8,-1.2,-1.1,-1.4c1.2,0,1.8,0.2,1.8,0.2c-0.3,-0.5,-0.4,-1.2,-0.2,-1.8c0.6,1.6,3,1.9,3.6,3.2c-0.1,-0.5,-0.6,-1.2,-1.3,-1.6c-0.3,-0.8,0,-2.4,0.4,-2.9c-0.2,2.3,3.1,3.6,3.8,5.3C283,51.8,281.5,50.9,280.7,50c-0.2,-0.6,0,-1.5,0.2,-1.9c0,1.6,1.6,2.8,2.5,3.7c1.1,1,1.4,1.9,1.2,2.6c0.3,0.1,0.6,0.3,0.5,0.7c0.4,-0.1,0.7,-0.5,0.8,-0.7c0.2,1.1,-0.5,2.3,-1.3,2.7c0,0,0.2,-0.5,-0.1,-1c-0.4,-0.4,-1.3,-0.4,-1.6,-0.4c0,0,0.4,-0.5,0.2,-0.8C282.9,54.5,281,54.6,280.2,55c0.2,-0.1,0.9,0,1.2,0.1c-0.2,0.2,-0.5,1,-0.3,1.3c0.3,0.2,0.6,-0.2,0.6,-0.2c0,0,-0.3,0.9,-0.1,1.1c0.2,0.2,0.6,0.1,0.6,0.1c-0.2,0.7,-1.3,1.2,-2.1,1.2c0.3,-0.1,0.7,-0.6,0.8,-0.9c-0.2,0.1,-0.7,0.2,-0.9,0.1c0.2,-0.1,0.7,-0.7,0.6,-1.4c-0.3,-1.1,-1.7,-1.2,-2.5,-0.7c0.3,-0.7,1,-1.4,1.5,-1.6c-0.3,-0.1,-0.7,-0.2,-1.1,-0.3c0.5,-0.3,1.7,-0.6,2.3,-0.6c-0.9,-0.3,-2.6,0,-3.4,0.9c0.3,0,0.9,0.2,1.1,0.2c-1,0.2,-2.4,1.2,-2.9,1.7c0.1,-0.6,0.3,-1.1,0.2,-1.5C275.6,54,274.9,53.8,273.7,54c0.8,-0.8,2.6,-1.4,2.7,-1.8m19.7,10.1c0,1.7,-1.7,3.1,-3.7,2.8c0.5,0.5,1.7,0.8,2.4,0.5c-0.4,0.7,-2.2,1.6,-3.8,1.2c-1.6,-0.4,-2.3,-1.9,-2.3,-2.9c-0.8,0.7,-0.6,2,0,2.4C288,66.2,287.1,65.5,287,64.4c-0.2,-1,0.4,-2.1,-0.6,-3c-0.6,-0.5,-1.6,-1.3,-2.2,-1.8c-1.2,-1,-0.8,-1.7,-1,-2.2c-0.3,-0.4,-0.8,-0.6,-1.1,-1C281.8,56,281.8,55.5,282,55.2c-0.1,0.4,0.2,0.7,0.7,0.9c0.4,0.1,0.8,0,1.2,0.2c0.5,0.3,0.3,1.1,0.6,1.3c0.3,0.3,1.1,-0.1,1.7,0.5c0.7,0.5,2.2,1.7,2.8,2.3c1.2,0.9,2.4,-0.2,2,-1.2c1.1,0.6,1.3,2.6,0.3,3.3c0.9,0.2,2.6,-0.2,2.6,-1.6c0,-0.8,-0.8,-1.4,-1.3,-1.4c1.9,-0.2,3.5,1.1,3.5,2.8Z" class="g6_1" />
</g>
</svg>